<?xml version="1.0" standalone="no"?>
<!DOCTYPE svg PUBLIC "-//W3C//DTD SVG 1.1//EN" "http://www.w3.org/Graphics/SVG/1.1/DTD/svg11.dtd" >
<svg xmlns="http://www.w3.org/2000/svg" xmlns:xlink="http://www.w3.org/1999/xlink" version="1.1" viewBox="-10 0 807 1000">
   <path fill="currentColor"
d="M244.684 260c-106.237 0.204102 -199.098 73.4453 -214.684 172.271h206.285c20.4893 -31.6895 51.6934 -49.6953 81.4766 -49.8223h150.49c116.914 0 107.042 58.2178 107.234 132.934c-22.0674 -25.0107 -57.1104 -41.5068 -100.732 -46.4258
c-45.002 -5.0752 -90.2334 -7.07227 -135.77 -7.11719c-14.1846 0.15918 -28.3652 0 -42.5488 0c-45.5352 0.0644531 -90.7666 2.04199 -135.768 7.11719c-68.249 7.69629 -115.661 43.6289 -124.895 96.3887c-7.63086 43.6172 -7.76465 87.4482 0 131.504
c9.30078 52.7529 56.6455 88.6943 124.895 96.3906c52 5.86426 104.312 7.60254 157.043 6.98438c52.7324 0.616211 105.041 -1.12012 157.043 -6.98438c44.7588 -5.04688 80.4316 -22.3037 102.373 -48.4219v55.4062h30.9629
c-17.6387 26.8916 -29.4902 67.3945 -4.85742 107.1c29.9893 48.3389 93.6924 63.6436 164.576 26.4219l-26.6387 -41.9648c-52.8486 27.751 -72.2393 -23.8467 -74.1406 -27.8965c-6.24707 -13.3057 -11.5605 -34.8711 -3.33398 -63.6602h92.2891v-338.385
c0 -111.474 -96.0918 -201.84 -214.629 -201.84h-296.672zM287.812 590.314h0.0078125h217.783c0.827148 20.7588 0.142578 65.0586 0.142578 65.0586c-5.23242 21.7979 -26.6689 25.1865 -58.002 27.3379c-23.874 1.63867 -42.6084 2.125 -72.0977 1.95312
c-29.4883 0.173828 -49.9365 -0.313477 -87.8262 -1.95312c-49.7305 -2.15137 -84.2256 -12.2002 -91.002 -26.9492c-5.6582 -12.3164 -5.56055 -25.2393 0 -37.7656c6.72656 -15.1514 41.2695 -25.4707 90.9961 -27.6816h-0.00195312z" />
</svg>
