<?xml version="1.0" standalone="no"?>
<!DOCTYPE svg PUBLIC "-//W3C//DTD SVG 1.1//EN" "http://www.w3.org/Graphics/SVG/1.1/DTD/svg11.dtd" >
<svg xmlns="http://www.w3.org/2000/svg" xmlns:xlink="http://www.w3.org/1999/xlink" version="1.1" viewBox="-10 0 1045 1000">
   <path fill="currentColor"
d="M140.807 35c-61.1553 0 -110.806 49.7207 -110.807 110.963v27.6143v510.319c0 64.7432 52.4883 117.307 117.139 117.307c-0.000976562 -0.000976562 21.2402 0 21.2402 0h626.73v-138.577h-601.922c-13.7891 -3.00195 -24.2852 -15.7539 -24.7402 -31.2871h-0.0683594
v-425.804h0.0683594c0.521484 -17.7871 14.2061 -31.9277 30.9277 -31.958c0.605469 0.00292969 1.21191 0.0380859 1.81641 0.0644531v-0.0644531h633.1v0.0644531c0.604492 -0.0419922 1.20996 -0.0605469 1.81641 -0.0644531
c16.7217 0.0380859 30.4072 14.1709 30.9277 31.958h0.0683594v264.131h-0.0644531c0.0410156 0.606445 0.0605469 1.21289 0.0644531 1.81934c-0.0380859 16.7461 -14.1514 30.4502 -31.9121 30.9727v0.0673828h-41.9932v-135.482
c0 -90.251 -74.5029 -163.415 -166.407 -163.415h-230.016c-82.3682 0.166992 -154.365 59.4629 -166.449 139.475h159.938c15.8857 -25.6572 40.0801 -40.2334 63.1719 -40.3369h116.678c41.8008 0 76.4121 46.5625 83.1406 107.627
c-17.1094 -20.249 -44.2773 -33.6045 -78.0977 -37.5869c-34.8916 -4.1084 -69.9629 -5.72656 -105.268 -5.7627c-10.9971 0.128906 -21.9912 0 -32.9883 0c-35.3047 0.0527344 -70.373 1.6543 -105.264 5.7627c-52.916 6.23047 -89.6758 35.3232 -96.834 78.0391
c-5.91602 35.3125 -6.02051 70.8008 0 106.469c7.21094 42.71 43.918 71.8076 96.834 78.0391c40.3164 4.74805 80.874 6.15723 121.758 5.65625c40.8848 0.499023 81.4434 -0.908203 121.762 -5.65625c34.7021 -4.08594 62.3574 -18.0566 79.3691 -39.2021v44.8584h38.7695
v0.0947266h205.431c58.9199 0 106.756 -47.9033 106.756 -106.907c-0.000976562 0 0 -31.332 0 -31.332v-331.378v-30.3086c0 -58.6006 -47.5078 -106.177 -106.024 -106.178h-758.65zM425.768 455.087h0.00195312h221.984
c0.90918 23.8145 0.154297 74.6338 0.154297 74.6338c-5.74805 25.0068 -29.2998 29.6709 -63.7227 32.207c-26.2275 1.93066 -52.6104 2.50391 -79.207 2.30176c-26.5957 0.204102 -52.9844 -0.370117 -79.2109 -2.30176
c-34.4219 -2.53613 -58.2998 -14.3779 -62.9902 -31.7588c-3.91602 -14.5146 -3.84863 -28.9551 0 -43.3252c4.65625 -17.3828 28.5684 -29.2207 62.9902 -31.7568z" />
</svg>
