<?xml version="1.0" standalone="no"?>
<!DOCTYPE svg PUBLIC "-//W3C//DTD SVG 1.1//EN" "http://www.w3.org/Graphics/SVG/1.1/DTD/svg11.dtd" >
<svg xmlns="http://www.w3.org/2000/svg" xmlns:xlink="http://www.w3.org/1999/xlink" version="1.1" viewBox="-10 0 820 1000">
   <path fill="currentColor"
d="M30 32v766.721h197.812v-53.2041c38.6074 33.1631 88.8428 53.2041 143.963 53.2041h188.307c122.318 0 220.793 -98.4736 220.793 -220.791v-94.8008c0 -122.318 -98.4746 -220.792 -220.793 -220.792h-188.307c-55.1201 0 -105.355 20.041 -143.963 53.2051v-283.542
h-197.812zM322.625 415.36h168.161c52.5264 0 94.8115 42.2852 94.8115 94.8115v40.7139c0 52.5273 -42.2852 94.8125 -94.8115 94.8125h-168.161c-52.5264 0 -94.8125 -42.2852 -94.8125 -94.8125v-40.7139c0 -52.5264 42.2861 -94.8115 94.8125 -94.8115z" />
</svg>
