<?xml version="1.0" standalone="no"?>
<!DOCTYPE svg PUBLIC "-//W3C//DTD SVG 1.1//EN" "http://www.w3.org/Graphics/SVG/1.1/DTD/svg11.dtd" >
<svg xmlns="http://www.w3.org/2000/svg" xmlns:xlink="http://www.w3.org/1999/xlink" version="1.1" viewBox="-10 0 438 1000">
   <path fill="currentColor"
d="M230.322 29.001c-50.4951 0.000976562 -91.4258 45.8379 -91.4248 102.378v125.641v22.541v8.64258c-0.0898438 16.2188 -4.63867 31.4443 -12.3506 44.2227c-13.9795 23.5195 -38.7471 39.1172 -67.0234 39.2256
c-10.4189 -0.0878906 -20.4248 -2.32715 -29.5234 -6.25586c0.0625 0.0361328 0 58.2168 0 58.2168v58.2178c9.09863 -3.92871 19.1045 -6.16797 29.5234 -6.25488c28.2764 0.107422 53.0439 15.7051 67.0234 39.2246c7.71191 12.7783 12.2607 28.0039 12.3506 44.2227
c-0.0498047 -0.0976562 0 13.041 0 13.041v125.64c-0.000976562 56.541 40.9297 102.377 91.4248 102.378h91.4287h77.0186v-142.735h-15.874c-33.7666 0 -61.1436 -19.2344 -61.1445 -57.0459v-28.2363v-22.543v-28.8379v-18.2168v-5.81055v-4.60449
c0 -33.6377 -18.2871 -62.4639 -44.3281 -74.6055c26.041 -12.1406 44.3281 -40.9678 44.3281 -74.6045c0.0478516 -0.0351562 0 -10.415 0 -10.415v-24.0273v-28.8379v-22.542v-28.2363c0.000976562 -37.8105 27.3779 -57.0469 61.1445 -57.0469h15.874v-142.735h-77.0186z
" />
</svg>
