<?xml version="1.0" standalone="no"?>
<!DOCTYPE svg PUBLIC "-//W3C//DTD SVG 1.1//EN" "http://www.w3.org/Graphics/SVG/1.1/DTD/svg11.dtd" >
<svg xmlns="http://www.w3.org/2000/svg" xmlns:xlink="http://www.w3.org/1999/xlink" version="1.1" viewBox="-10 0 438 1000">
   <path fill="currentColor"
d="M198.447 29.001l-91.4287 -0.000976562h-77.0186v142.735h15.874c33.7676 0 61.1436 19.2363 61.1445 57.0469v28.2363v22.542v28.8379v24.0273s-0.0478516 10.3799 0 10.415c0 33.6367 18.2871 62.4629 44.3281 74.6045
c-26.041 12.1416 -44.3281 40.9678 -44.3281 74.6055v4.60449v5.81055v18.2168v28.8379v22.543v28.2363c-0.000976562 37.8115 -27.377 57.0459 -61.1445 57.0459h-15.874v142.735h77.0186h91.4287c50.4941 -0.000976562 91.4258 -45.8369 91.4238 -102.378v-125.64
s0.0507812 -13.1387 0 -13.041c0.0898438 -16.2188 4.63965 -31.4443 12.3516 -44.2227c13.9795 -23.5195 38.748 -39.1172 67.0234 -39.2246c10.4199 0.0869141 20.4258 2.32617 29.5234 6.25488v-58.2178s-0.0625 -58.1807 0 -58.2168
c-9.09766 3.92871 -19.1035 6.16797 -29.5234 6.25586c-28.2754 -0.107422 -53.0439 -15.7061 -67.0234 -39.2256c-7.71191 -12.7783 -12.2617 -28.0039 -12.3516 -44.2227v-8.64258v-22.541v-125.641c0.00195312 -56.54 -40.9297 -102.377 -91.4238 -102.378z" />
</svg>
