<?xml version="1.0" standalone="no"?>
<!DOCTYPE svg PUBLIC "-//W3C//DTD SVG 1.1//EN" "http://www.w3.org/Graphics/SVG/1.1/DTD/svg11.dtd" >
<svg xmlns="http://www.w3.org/2000/svg" xmlns:xlink="http://www.w3.org/1999/xlink" version="1.1" viewBox="-10 0 1105 1000">
   <path fill="currentColor"
d="M510.577 30c-82.1367 0.143555 -163.724 4.65527 -244.897 16.2168c-123.104 17.5342 -208.615 99.4033 -225.266 219.609c-13.7656 99.375 -14.0059 199.239 0 299.613c16.7725 120.191 102.161 202.075 225.266 219.609c93.7988 13.3604 188.156 17.3271 283.27 15.918
c95.1133 1.4043 189.473 -2.55762 283.271 -15.918c123.104 -17.5342 208.495 -99.418 225.267 -219.609c3.54688 -25.416 6.16309 -50.7998 7.89355 -76.1504h-235.376c-10.002 56.583 -56.9072 95.1006 -124.29 103.414
c-51.9072 6.40332 -104.126 8.30664 -156.765 7.63086c-52.6396 0.680664 -104.857 -1.23145 -156.767 -7.63086c-68.1289 -8.40527 -115.388 -47.6562 -124.666 -105.27c-7.75195 -48.1143 -7.61914 -95.9844 0 -143.621
c9.21094 -57.6211 56.5371 -96.8623 124.666 -105.266c44.9258 -5.54395 90.0713 -7.72168 135.529 -7.7793c14.1562 -0.00390625 28.3145 0.173828 42.4756 0c45.4531 0 90.6055 2.23535 135.526 7.7793c44.9531 5.54492 80.7539 24.5801 102.622 53.3945h252.321
c-0.99707 -8.70703 -1.96387 -17.415 -3.1709 -26.1152c-16.6494 -120.206 -102.162 -202.075 -225.267 -219.609c-81.1719 -11.5615 -162.762 -16.1152 -244.896 -16.2168c-25.585 0.363281 -51.1621 0 -76.7461 0z" />
</svg>
