<?xml version="1.0" standalone="no"?>
<!DOCTYPE svg PUBLIC "-//W3C//DTD SVG 1.1//EN" "http://www.w3.org/Graphics/SVG/1.1/DTD/svg11.dtd" >
<svg xmlns="http://www.w3.org/2000/svg" xmlns:xlink="http://www.w3.org/1999/xlink" version="1.1" viewBox="-10 0 806 1000">
   <path fill="currentColor"
d="M431.596 49l-121.801 150.746l33.7305 35.3203l143.346 -120.084zM371.928 260.184c-58.4395 0.101562 -116.49 3.26074 -174.242 11.3613c-87.5889 12.2852 -148.428 69.6445 -160.275 153.863c-9.79492 69.624 -9.96582 139.592 0 209.916
c11.9346 84.208 72.6865 141.577 160.275 153.861c66.7354 9.36035 133.87 12.1396 201.541 11.1523c67.6729 0.983398 134.809 -1.79199 201.545 -11.1523c87.5859 -12.2842 148.341 -69.6533 160.277 -153.861c2.52246 -17.8076 4.38281 -35.5918 5.61719 -53.3535
h-167.473c-7.11328 39.6426 -40.4854 66.6279 -88.4277 72.4531c-36.9336 4.48633 -74.0859 5.82129 -111.539 5.34766c-37.4512 0.476562 -74.6035 -0.864258 -111.535 -5.34766c-48.4766 -5.88867 -82.0967 -33.3887 -88.6992 -73.7539
c-5.51465 -33.71 -5.4209 -67.248 0 -100.623c6.55469 -40.3701 40.2227 -67.8643 88.6992 -73.752c31.9609 -3.88379 64.085 -5.4082 96.4258 -5.44922c10.0732 -0.00292969 20.1475 0.121094 30.2207 0c32.3408 0 64.4639 1.56543 96.4277 5.44922
c31.9834 3.88477 57.4531 17.2227 73.0137 37.4102h179.523c-0.709961 -6.10059 -1.39746 -12.2021 -2.25391 -18.2969c-11.8486 -84.2188 -72.6914 -141.578 -160.277 -153.863c-57.7529 -8.10059 -115.804 -11.291 -174.242 -11.3613
c-18.2002 0.25293 -36.4023 0 -54.6016 0z" />
</svg>
