<?xml version="1.0" standalone="no"?>
<!DOCTYPE svg PUBLIC "-//W3C//DTD SVG 1.1//EN" "http://www.w3.org/Graphics/SVG/1.1/DTD/svg11.dtd" >
<svg xmlns="http://www.w3.org/2000/svg" xmlns:xlink="http://www.w3.org/1999/xlink" version="1.1" viewBox="-10 0 1105 1000">
   <path fill="currentColor"
d="M580.954 -188l-121.802 155.406l33.7314 36.416l143.345 -123.799zM510.576 27.1699c-82.1338 0.143555 -163.724 4.6543 -244.896 16.2168c-123.104 17.5342 -208.616 99.4033 -225.269 219.609c-13.7627 99.375 -14.0029 199.239 0 299.613
c16.7744 120.19 102.164 202.075 225.269 219.609c93.7969 13.3604 188.156 17.3262 283.27 15.918c95.1152 1.4043 189.471 -2.55762 283.271 -15.918c123.104 -17.5342 208.494 -99.4189 225.265 -219.609c3.5459 -25.416 6.16602 -50.7988 7.89648 -76.1504h-235.378
c-10.0059 56.582 -56.9053 95.1006 -124.287 103.414c-51.9111 6.40332 -104.131 8.30664 -156.768 7.63086c-52.6367 0.680664 -104.855 -1.23145 -156.768 -7.63086c-68.125 -8.40527 -115.384 -47.6562 -124.666 -105.27c-7.75195 -48.1152 -7.61914 -95.9844 0 -143.621
c9.21582 -57.6211 56.541 -96.8623 124.666 -105.266c44.9248 -5.54395 90.0693 -7.72168 135.527 -7.7793c14.1572 0 28.3203 0.173828 42.4766 0c45.458 0 90.6055 2.23535 135.531 7.7793c44.9482 5.54492 80.75 24.5801 102.617 53.3945h252.321
c-0.99707 -8.70703 -1.96484 -17.416 -3.16992 -26.1152c-16.6475 -120.206 -102.161 -202.075 -225.265 -219.609c-81.1748 -11.5625 -162.766 -16.1152 -244.898 -16.2168c-25.583 0.362305 -51.1611 0 -76.7471 0z" />
</svg>
