<?xml version="1.0" standalone="no"?>
<!DOCTYPE svg PUBLIC "-//W3C//DTD SVG 1.1//EN" "http://www.w3.org/Graphics/SVG/1.1/DTD/svg11.dtd" >
<svg xmlns="http://www.w3.org/2000/svg" xmlns:xlink="http://www.w3.org/1999/xlink" version="1.1" viewBox="-10 0 1046 1000">
   <path fill="currentColor"
d="M471.227 0v90.6523h-210.643c-127.743 0 -230.584 102.84 -230.584 230.583s102.841 230.583 230.584 230.583h210.643v131.59h-130.501c-35.4209 0 -63.9395 -28.5166 -63.9395 -63.9385v-5.43066c0 -5.11328 0.65918 -10.0605 1.78516 -14.8213h-246.04
c-1.65137 11.1777 -2.53125 22.6133 -2.53125 34.2646c0 127.742 102.845 230.582 230.589 230.582h210.638v88.3164h93.7246v-88.3164h210.638c127.743 0 230.585 -102.84 230.585 -230.582c0 -127.744 -102.842 -230.584 -230.585 -230.584h-210.638v-131.589h130.497
c35.4209 0 63.9375 28.5156 63.9375 63.9375v5.43066c0 5.11328 -0.657227 10.0605 -1.78418 14.8213h246.041c1.65137 -11.1768 2.53125 -22.6133 2.53125 -34.2637c0 -127.743 -102.847 -230.583 -230.59 -230.583h-210.633v-90.6523h-93.7246zM335.768 271.31h135.459
v131.589h-150.028c-28.3438 -6.56738 -49.3682 -31.8223 -49.3682 -62.2207v-5.43066c0 -35.4219 28.5166 -63.9375 63.9375 -63.9375zM564.951 551.818h150.023c28.3447 6.56836 49.3682 31.8223 49.3682 62.2207v5.43066c0 35.4219 -28.5156 63.9385 -63.9375 63.9385
h-135.454v-131.59z" />
</svg>
