<?xml version="1.0" standalone="no"?>
<!DOCTYPE svg PUBLIC "-//W3C//DTD SVG 1.1//EN" "http://www.w3.org/Graphics/SVG/1.1/DTD/svg11.dtd" >
<svg xmlns="http://www.w3.org/2000/svg" xmlns:xlink="http://www.w3.org/1999/xlink" version="1.1" viewBox="-10 0 806 1000">
   <path fill="currentColor"
d="M371.252 260c-58.3232 0.102539 -116.257 3.26074 -173.896 11.3613c-87.415 12.2852 -148.135 69.6445 -159.961 153.863c-9.77539 69.624 -9.94531 139.592 0 209.916c11.9121 84.208 72.5459 141.576 159.961 153.861
c66.6025 9.36035 133.606 12.1387 201.145 11.1523c67.5381 0.983398 134.539 -1.79199 201.144 -11.1523c87.4141 -12.2852 148.048 -61.6533 159.959 -145.861c0.458008 -3.2373 0.78418 -6.46973 1.19922 -9.70508h-185.678
c-15.667 15.3799 -38.1514 17.501 -65.3086 20.8066c-36.8623 4.48633 -73.9365 5.81738 -111.315 5.34375c-37.3779 0.476562 -74.4609 -0.860352 -111.318 -5.34375c-39.1377 -4.76367 -68.5586 -33.6816 -81.8652 -62.1016h193.083h193.281h171.763
c1.38477 -17.1152 2.33789 -24.2129 2.89453 -41.293h0.0380859c0 -0.570312 0 -1.13965 0.0380859 -1.70898c0.0869141 -2.76367 0.18457 -5.52832 0.249023 -8.29102h-0.113281c0.0380859 -2.16504 0.0986328 -4.33105 0.113281 -6.49414v-8.5918
c-0.0791016 -12.6523 -0.703125 -25.2871 -1.48145 -37.9141h0.0908203c-0.105469 -1.54199 -0.279297 -3.65332 -0.394531 -5.29883c-0.0595703 -0.898438 -0.09375 -1.79785 -0.154297 -2.69531h-0.0458984c-1.21582 -17.4541 -2.8252 -38.7656 -5.05176 -54.6289
c-11.8252 -84.2188 -72.5459 -141.578 -159.96 -153.863c-57.6406 -8.10059 -115.572 -11.29 -173.896 -11.3613c-18.167 0.25293 -36.3301 0 -54.4971 0h-0.0224609zM383.417 400.662c10.0537 -0.00292969 20.1104 0.121094 30.1611 0
c32.2783 0 64.3398 1.56738 96.2383 5.45117c45.1436 5.49414 77.3984 36.7744 86.8301 73.7324l-362.774 0.00195312h-35.21c6.54785 -40.3623 40.1475 -67.8467 88.5205 -73.7344c31.8975 -3.88379 63.958 -5.41113 96.2344 -5.45117z" />
</svg>
