<?xml version="1.0" standalone="no"?>
<!DOCTYPE svg PUBLIC "-//W3C//DTD SVG 1.1//EN" "http://www.w3.org/Graphics/SVG/1.1/DTD/svg11.dtd" >
<svg xmlns="http://www.w3.org/2000/svg" xmlns:xlink="http://www.w3.org/1999/xlink" version="1.1" viewBox="-10 0 806 1000">
   <path fill="currentColor"
d="M371.252 260c-58.3232 0.101562 -116.258 3.26074 -173.896 11.3613c-87.415 12.2852 -148.135 69.6445 -159.961 153.863c-9.77441 69.624 -9.94434 139.593 0 209.916c11.9131 84.208 72.5459 141.576 159.961 153.861c58.6123 8.2373 117.561 11.1855 176.885 11.1484
c-17.7471 26.8848 -29.7539 67.499 -5.01562 107.309c30.0342 48.3281 93.833 63.6299 164.82 26.416l-26.6777 -41.957c-52.9268 27.7451 -72.3447 -23.8428 -74.25 -27.8926c-6.27246 -13.3379 -11.6143 -34.9775 -3.27832 -63.8789
c56.9326 -0.211914 113.521 -3.23438 169.805 -11.1445c87.4141 -12.2852 148.049 -61.6533 159.96 -145.861c0.458008 -3.2373 0.78418 -6.46973 1.19922 -9.70508h-185.678c-15.667 15.3799 -38.1504 17.501 -65.3086 20.8066
c-36.8613 4.48633 -73.9375 5.81738 -111.316 5.34375c-37.3779 0.476562 -74.4609 -0.860352 -111.318 -5.34375c-39.1377 -4.76465 -68.5586 -23.6816 -81.8652 -52.1016h193.084h193.281h171.763c1.38477 -17.1152 2.33691 -34.2129 2.89355 -51.293h0.0380859
c0 -0.570312 -0.000976562 -1.13965 0.0380859 -1.70898c0.0869141 -2.76367 0.18457 -5.52832 0.249023 -8.29102h-0.113281c0.0380859 -2.16504 0.0986328 -4.33105 0.113281 -6.49414v-8.5918c-0.0791016 -12.6523 -0.704102 -25.2871 -1.48242 -37.9141h0.0908203
c-0.105469 -1.54199 -0.279297 -3.65332 -0.394531 -5.29883c-0.0605469 -0.898438 -0.0947266 -1.79688 -0.155273 -2.69531h-0.0449219c-1.2168 -17.4531 -2.82422 -38.7656 -5.05078 -54.6289c-11.8252 -84.2188 -72.5469 -141.578 -159.961 -153.863
c-57.6396 -8.10059 -115.571 -11.29 -173.895 -11.3613c-18.167 0.25293 -36.332 0 -54.498 0h-0.0205078zM383.416 400.662c10.0537 -0.00292969 20.1113 0.121094 30.1621 0c32.2783 0 64.3408 1.56738 96.2383 5.45117c45.1436 5.49414 77.3984 36.7744 86.8301 73.7324
l-362.775 0.00195312h-35.209c6.54883 -40.3623 40.1475 -67.8477 88.5195 -73.7344c31.8975 -3.88379 63.958 -5.41113 96.2344 -5.45117z" />
</svg>
