<?xml version="1.0" standalone="no"?>
<!DOCTYPE svg PUBLIC "-//W3C//DTD SVG 1.1//EN" "http://www.w3.org/Graphics/SVG/1.1/DTD/svg11.dtd" >
<svg xmlns="http://www.w3.org/2000/svg" xmlns:xlink="http://www.w3.org/1999/xlink" version="1.1" viewBox="-10 0 988 1000">
   <path fill="currentColor"
d="M36.4121 30v84.8867h-0.00195312l0.00195312 109.324v205.512h188.126c80.8926 -1.13281 161.781 -2.53125 242.674 -3.7041c12.623 0.125 25.2422 0 37.8613 0c40.5225 0.0419922 80.7666 1.58594 120.813 5.51562c60.7305 5.95801 102.917 15.7266 111.129 56.5771
c2.93652 14.6025 4.54883 29.2373 4.95801 43.9023c-0.413086 14.6553 -2.02148 29.2812 -4.95605 43.874c-8.21191 40.8496 -50.3984 58.6689 -111.129 64.627c-40.0479 3.93066 -80.292 5.47363 -120.813 5.51562c-12.6191 0.00292969 -25.2383 -0.121094 -37.8613 0
c-40.5176 0 -80.7021 -2.04004 -120.812 -5.51562c-69.9336 -6.05859 -91.8887 -42.7891 -91.7939 -60.4141l0.313477 -49.0107h-224.922v81.5703c0.887695 6.17285 1.75 12.3467 2.82617 18.5146c14.8408 85.2207 91.0693 143.263 200.807 155.693
c72.3584 8.19727 145.09 11.4229 218.306 11.4951h0.00195312c22.8066 -0.260742 45.6084 0 68.4131 0c73.2178 -0.101562 145.944 -3.2998 218.304 -11.4971c109.737 -12.4307 185.963 -70.4707 200.805 -155.691c5.33887 -30.6514 8.25586 -61.375 8.9707 -92.1582
h0.306641c0 -2.32812 -0.117188 -4.65234 -0.155273 -6.97949c0.0380859 -2.35254 0.155273 -4.70312 0.155273 -7.05664h-0.30957c-0.714844 -30.7842 -3.63184 -61.5078 -8.9707 -92.1592c-14.8428 -85.2197 -91.0654 -125.21 -200.804 -137.641
c-72.3594 -8.19629 -145.089 -11.3945 -218.306 -11.4971c-17.4873 0 -34.9736 0.0908203 -52.46 0.0458984v-0.0458984l-170.835 -0.0488281c-21.2656 0.0830078 -41.0352 4.21484 -52.7559 11.0264v-11.0342h-0.00195312v-17.8135l0.537109 -64.1348h703.903v-171.679
h-912.325z" />
</svg>
