<?xml version="1.0" standalone="no"?>
<!DOCTYPE svg PUBLIC "-//W3C//DTD SVG 1.1//EN" "http://www.w3.org/Graphics/SVG/1.1/DTD/svg11.dtd" >
<svg xmlns="http://www.w3.org/2000/svg" xmlns:xlink="http://www.w3.org/1999/xlink" version="1.1" viewBox="-10 0 816 1000">
   <path fill="currentColor"
d="M308.515 286c-47.6006 0.0908203 -94.8857 3.06934 -141.927 10.6963c-71.3428 11.5654 -120.9 70.5654 -130.553 149.852c-7.97656 65.5469 -8.11621 131.417 0 197.623c9.72266 79.2773 59.21 133.287 130.553 144.853c54.3574 8.81152 109.042 11.4277 164.163 10.499
c55.1221 0.925781 109.805 -1.6875 164.164 -10.499c34.2539 -5.55273 63.3906 -20.9775 85.584 -44.1973v75.6592h-0.237305c0.150391 1.72559 0.230469 3.4541 0.237305 5.18555c-0.0634766 39.2109 -36.375 91.1328 -81.583 91.6689h-231.825
c-38.7207 -0.0683594 -30.2393 -49.5098 -30.7686 -86.1826h-175.981v66.1826v10.001c-0.00195312 89.1797 71.3877 161.476 159.452 161.477h387.743c93.5186 -0.00195312 169.329 -76.7744 169.329 -171.478v-611.34h-196.366v59.8613
c-22.1992 -23.2031 -51.3447 -43.6152 -85.584 -49.165c-47.0439 -7.62695 -94.3223 -10.6289 -141.923 -10.6963c-14.8271 0.242188 -29.6514 0 -44.4775 0zM392.245 430.065c8.37793 0 16.752 0.106445 25.1279 0c26.8965 0 53.6113 1.39355 80.1914 4.85059
c40.3115 5.24121 68.3125 29.7168 73.7656 65.6543c4.50684 29.709 4.58496 59.5645 0 89.5723c-5.49316 35.9316 -33.4541 60.4111 -73.7656 65.6543c-30.7129 3.99316 -61.6094 5.17578 -92.7539 4.75586c-31.1445 0.421875 -62.043 -0.762695 -92.7559 -4.75586
c-40.3115 -5.24316 -68.2725 -29.7227 -73.7656 -65.6543c-4.58496 -30.0078 -4.50781 -59.8633 0 -89.5723c5.4541 -35.9375 33.4541 -60.4131 73.7656 -65.6543c26.5791 -3.45703 53.2959 -4.80371 80.1904 -4.85059z" />
</svg>
