<?xml version="1.0" standalone="no"?>
<!DOCTYPE svg PUBLIC "-//W3C//DTD SVG 1.1//EN" "http://www.w3.org/Graphics/SVG/1.1/DTD/svg11.dtd" >
<svg xmlns="http://www.w3.org/2000/svg" xmlns:xlink="http://www.w3.org/1999/xlink" version="1.1" viewBox="-10 0 980 1000">
   <path fill="currentColor"
d="M529.121 801.241v-0.000976562c71.8604 0 143.247 -3.47559 214.267 -12.1084c107.707 -13.0918 193.565 -73.6074 197.09 -163.973c0.915039 -23.459 -1.66602 -309.001 -0.279297 -333.284h-0.102539c0.113281 -2.77441 0.310547 -5.54492 0.382812 -8.31934v-13.0195
c-0.738281 -28.5518 -3.75098 -57.0439 -9.26172 -85.4717c-15.3223 -79.0381 -94.0117 -132.873 -207.296 -144.401c-74.6992 -7.60254 -149.777 -10.5684 -225.361 -10.6631h-10.3428h-5.43066h-10.3438c-75.584 0.0947266 -150.662 3.06055 -225.36 10.6631
c-113.285 11.5283 -191.977 65.3633 -207.298 144.401c-5.51172 28.4277 -8.52246 56.9199 -9.26074 85.4717h-0.313477c0 2.1582 0.121094 4.31543 0.158203 6.47363c-0.0371094 2.18164 -0.158203 4.3623 -0.158203 6.5459h0.317383
c0.738281 28.5498 3.75098 57.043 9.2627 85.4717c15.3213 79.0381 94.0146 116.129 207.3 127.657c74.6982 7.60254 149.776 10.5693 225.359 10.6631c4.29102 0 8.58301 -0.00390625 12.873 0h13.2354l0.00195312 -0.00195312l-0.00195312 -0.00195312
c58.5957 -0.0712891 116.882 -1.94727 174.929 -6.29395c22.5771 -2.76758 52.0879 -9.6875 61.3525 -14.6826v3.13574c-0.28418 40.8545 -0.580078 75.7119 -0.899414 77.415c-8.06055 43.0234 -41.6152 72.3232 -101.221 78.5986
c-39.3066 4.13867 -78.8057 5.76367 -118.578 5.80762c-12.3857 0.00292969 -24.7783 -0.128906 -37.1641 0c-39.7715 0 -79.2734 -1.66895 -118.58 -5.80762c-34.9326 -3.67871 -102.663 -14.9414 -102.572 -28.4561l0.313477 -47.0254h-225.931v40.7148h-0.207031
l0.207031 13.0879v11.2861c0.193359 1.06836 0.391602 2.13672 0.584961 3.2041c5.95605 104.787 77.1846 134.509 216.923 150.791c71.0684 8.28125 142.406 12.0322 214.267 12.1074c22.3848 -0.271484 44.7617 0 67.1455 0zM485.499 375.322
c-40.9131 -0.0947266 -81.5586 -1.52441 -122.004 -5.08984c-62.6943 -5.52637 -106.244 -14.5869 -114.721 -52.4736c-3.03223 -13.5439 -4.69434 -27.1191 -5.11621 -40.7197c0.426758 -13.5918 2.08496 -27.1562 5.11426 -40.6904
c8.47559 -37.8867 52.0273 -63.6885 114.721 -69.2148c40.4492 -3.56543 81.0967 -4.99121 122.014 -5.08887c40.9092 0.0986328 81.5527 1.52344 121.997 5.08887c62.6943 5.52637 106.246 31.3281 114.723 69.2148c3.0293 13.5342 4.6875 27.0986 5.11523 40.6904
c-0.422852 13.6006 -2.08594 27.1758 -5.11719 40.7197c-8.47656 37.8867 -52.0283 46.9473 -114.723 52.4736c-40.4453 3.56543 -81.0908 4.99316 -122.003 5.08984z" />
</svg>
