<?xml version="1.0" standalone="no"?>
<!DOCTYPE svg PUBLIC "-//W3C//DTD SVG 1.1//EN" "http://www.w3.org/Graphics/SVG/1.1/DTD/svg11.dtd" >
<svg xmlns="http://www.w3.org/2000/svg" xmlns:xlink="http://www.w3.org/1999/xlink" version="1.1" viewBox="-10 0 1107 1000">
   <path fill="currentColor"
d="M582.213 -190l-121.8 155.406l33.7305 36.416l143.346 -123.799zM510.577 25.1719c-82.1348 0.143555 -163.725 4.6543 -244.897 16.2168c-123.105 17.5342 -208.615 99.4033 -225.267 219.609c-13.7637 99.375 -14.0039 199.239 0 299.613
c16.7734 120.191 102.161 202.073 225.267 219.607c93.7979 13.3604 188.156 17.3262 283.27 15.918c95.1113 1.4043 189.473 -2.55762 283.271 -15.918c123.104 -17.5342 208.493 -99.416 225.267 -219.607c14.0068 -100.374 13.7637 -200.238 0 -299.613
c-16.6514 -120.206 -102.162 -202.075 -225.267 -219.609c-81.1738 -11.5625 -162.763 -16.1152 -244.896 -16.2168c-25.585 0.362305 -51.1621 0 -76.7471 0zM527.713 225.939c14.1572 -0.00390625 28.3184 0.173828 42.4746 0c45.459 0 90.6064 2.23535 135.531 7.7793
c68.1279 8.40332 115.45 47.6426 124.667 105.264c7.61816 47.6367 7.75098 95.5059 0 143.621c-9.2832 57.6133 -56.5391 96.8662 -124.667 105.271c-51.9121 6.40332 -104.132 8.30469 -156.77 7.62891c-52.6357 0.680664 -104.856 -1.23047 -156.768 -7.62891
c-68.126 -8.40527 -115.385 -47.6582 -124.665 -105.271c-7.75195 -48.1152 -7.61914 -95.9844 0 -143.621c9.21289 -57.6211 56.5391 -96.8604 124.665 -105.264c44.9258 -5.54395 90.0732 -7.72168 135.531 -7.7793z" />
</svg>
