<?xml version="1.0" standalone="no"?>
<!DOCTYPE svg PUBLIC "-//W3C//DTD SVG 1.1//EN" "http://www.w3.org/Graphics/SVG/1.1/DTD/svg11.dtd" >
<svg xmlns="http://www.w3.org/2000/svg" xmlns:xlink="http://www.w3.org/1999/xlink" version="1.1" viewBox="-10 0 820 1000">
   <path fill="currentColor"
d="M780.879 1030.72v-766.721h-197.814v53.2051c-38.6064 -33.1641 -88.8428 -53.2051 -143.964 -53.2051h-188.308c-122.319 0 -220.793 98.4746 -220.793 220.792v94.8008c0 122.318 98.4736 220.791 220.793 220.791h188.308c55.1211 0 105.357 -20.041 143.964 -53.2051
v283.542h197.814zM488.253 647.36h-168.162c-52.5283 0 -94.8135 -42.2842 -94.8135 -94.8105v-40.7148c0 -52.5264 42.2852 -94.8115 94.8135 -94.8115h168.162c52.5264 0 94.8115 42.2852 94.8115 94.8115v40.7148c0 52.5264 -42.2852 94.8105 -94.8115 94.8105z" />
</svg>
