<?xml version="1.0" standalone="no"?>
<!DOCTYPE svg PUBLIC "-//W3C//DTD SVG 1.1//EN" "http://www.w3.org/Graphics/SVG/1.1/DTD/svg11.dtd" >
<svg xmlns="http://www.w3.org/2000/svg" xmlns:xlink="http://www.w3.org/1999/xlink" version="1.1" viewBox="-10 0 1243 1000">
   <path fill="currentColor"
d="M510.58 30c-82.1357 0.143555 -163.728 4.65527 -244.9 16.2168c-123.104 17.5342 -208.615 99.4033 -225.266 219.609c-13.7646 99.376 -14.0059 199.239 0 299.613c16.7725 120.191 102.162 202.075 225.266 219.609c93.7988 13.3604 188.159 17.3271 283.271 15.918
c95.1133 1.4043 189.471 -2.55762 283.27 -15.918c57.2285 -8.15137 106.155 -30.3604 143.979 -63.709l130.547 79.8945l96.4316 -157.57l-144.449 -88.4023c12.6016 -96.9453 12.0596 -193.421 -1.24023 -289.436c-16.6494 -120.206 -102.163 -202.075 -225.268 -219.609
c-81.1729 -11.5615 -162.761 -16.1152 -244.896 -16.2168c-25.583 0.363281 -51.1611 0 -76.7441 0zM527.713 230.768c14.1582 0 28.3184 0.173828 42.4766 0c45.4561 0 90.6064 2.23535 135.529 7.7793c68.1289 8.4043 115.453 47.6445 124.668 105.266
c3.99805 24.999 5.87793 50.0625 5.69531 75.1914l-131.572 -80.5215l-96.4316 157.57l140.764 86.1465c-13.1729 4.98535 -27.5713 8.58594 -43.123 10.5039c-51.9111 6.40332 -104.129 8.30664 -156.768 7.63086c-52.6387 0.680664 -104.858 -1.23145 -156.768 -7.63086
c-68.1279 -8.40527 -115.386 -47.6562 -124.668 -105.27c-7.75098 -48.1143 -7.61816 -95.9844 0 -143.621c9.21582 -57.6211 56.54 -96.8613 124.668 -105.266c44.9229 -5.54395 90.0732 -7.72168 135.529 -7.7793z" />
</svg>
