<?xml version="1.0" standalone="no"?>
<!DOCTYPE svg PUBLIC "-//W3C//DTD SVG 1.1//EN" "http://www.w3.org/Graphics/SVG/1.1/DTD/svg11.dtd" >
<svg xmlns="http://www.w3.org/2000/svg" xmlns:xlink="http://www.w3.org/1999/xlink" version="1.1" viewBox="-10 0 778 1000">
   <path fill="currentColor"
d="M197.26 264c-92.6582 0 -167.254 71.2344 -167.254 159.72c0 88.4863 74.5957 159.721 167.254 159.721h329.596c20.5586 4.54883 35.8086 22.043 35.8086 43.0986v3.76172c0 24.5352 -20.6836 44.2891 -46.3789 44.2891h-260.895
c-25.6914 0 -46.377 -19.7539 -46.377 -44.2891v-3.76172c0 -3.54297 0.474609 -6.96875 1.28711 -10.2666h-178.467c-1.19336 7.74219 -1.83398 15.6641 -1.83398 23.7334c0 88.4854 74.5977 159.72 167.258 159.72h373.559c92.6582 0 167.252 -71.2344 167.252 -159.72
c0 -88.4844 -74.5938 -159.719 -167.252 -159.719h-329.596c-20.5586 -4.55176 -35.8086 -22.043 -35.8086 -43.1006v-3.76172c0 -24.5352 20.6836 -44.2881 46.377 -44.2881h260.895c25.6953 0 46.3789 19.7529 46.3789 44.2881v3.76172
c0 3.54395 -0.476562 6.96875 -1.28711 10.2666h178.463c1.19531 -7.74219 1.83594 -15.6641 1.83594 -23.7334c0 -88.4854 -74.5977 -159.72 -167.256 -159.72h-373.559z" />
</svg>
