<?xml version="1.0" standalone="no"?>
<!DOCTYPE svg PUBLIC "-//W3C//DTD SVG 1.1//EN" "http://www.w3.org/Graphics/SVG/1.1/DTD/svg11.dtd" >
<svg xmlns="http://www.w3.org/2000/svg" xmlns:xlink="http://www.w3.org/1999/xlink" version="1.1" viewBox="-10 0 980 1000">
   <path fill="currentColor"
d="M441.559 30v0.00195312c-71.8604 0 -143.247 3.47461 -214.267 12.1074c-107.707 13.0918 -193.565 73.6084 -197.09 163.973c-0.916016 23.459 1.66602 309.001 0.279297 333.284h0.102539c-0.114258 2.77441 -0.310547 5.54492 -0.382812 8.32031v13.0186
c0.738281 28.5518 3.75 57.0439 9.26172 85.4717c15.3213 79.0391 94.0107 132.873 207.296 144.401c74.6982 7.60254 149.776 10.5684 225.361 10.6631h10.3428h5.43066h10.3428c75.585 -0.0947266 150.662 -3.06055 225.361 -10.6631
c113.285 -11.5283 191.976 -65.3623 207.298 -144.401c5.51074 -28.4277 8.52148 -56.9199 9.26074 -85.4717h0.313477c0 -2.1582 -0.121094 -4.31543 -0.15918 -6.47363c0.0380859 -2.18164 0.15918 -4.3623 0.15918 -6.54492h-0.317383
c-0.738281 -28.5508 -3.75098 -57.0439 -9.2627 -85.4727c-15.3223 -79.0381 -94.0146 -116.129 -207.3 -127.657c-74.6982 -7.60254 -149.776 -10.5684 -225.359 -10.6631c-4.29102 0 -8.58301 0.00390625 -12.874 0h-13.2344l-0.00195312 0.00195312
l0.00195312 0.00195312c-58.5967 0.0712891 -116.882 1.94727 -174.929 6.29395c-22.5781 2.76758 -52.0879 9.6875 -61.3525 14.6826v-3.13477c0.283203 -40.8555 0.580078 -75.7129 0.899414 -77.416c8.06055 -43.0225 41.6152 -72.3232 101.221 -78.5977
c39.3066 -4.13965 78.8057 -5.76465 118.578 -5.80762c12.3848 -0.00292969 24.7773 0.12793 37.1641 0c39.7715 0 79.2734 1.66797 118.579 5.80762c34.9336 3.67773 102.664 14.9404 102.573 28.4551l-0.313477 47.0254h225.93v-40.7148h0.208008l-0.208008 -13.0869
v-11.2871c-0.192383 -1.06836 -0.390625 -2.13672 -0.583984 -3.2041c-5.95605 -104.787 -77.1846 -134.509 -216.924 -150.791c-71.0684 -8.28125 -142.405 -12.0312 -214.267 -12.1074c-22.3838 0.271484 -44.7607 0 -67.1445 0zM485.181 455.92
c40.9121 0.09375 81.5586 1.52344 122.004 5.08887c62.6943 5.52637 106.244 14.5869 114.721 52.4736c3.03125 13.5439 4.69336 27.1191 5.11621 40.7207c-0.426758 13.5908 -2.08496 27.1562 -5.11426 40.6895c-8.47559 37.8867 -52.0283 63.6885 -114.721 69.2148
c-40.4502 3.56543 -81.0967 4.99121 -122.014 5.08887c-40.9102 -0.0986328 -81.5537 -1.52344 -121.997 -5.08887c-62.6943 -5.52637 -106.246 -31.3281 -114.724 -69.2148c-3.02832 -13.5332 -4.68652 -27.0986 -5.11426 -40.6895
c0.421875 -13.6016 2.08496 -27.1768 5.11621 -40.7207c8.47754 -37.8867 52.0293 -46.9473 114.724 -52.4736c40.4443 -3.56543 81.0898 -4.99316 122.003 -5.08887z" />
</svg>
