<?xml version="1.0" standalone="no"?>
<!DOCTYPE svg PUBLIC "-//W3C//DTD SVG 1.1//EN" "http://www.w3.org/Graphics/SVG/1.1/DTD/svg11.dtd" >
<svg xmlns="http://www.w3.org/2000/svg" xmlns:xlink="http://www.w3.org/1999/xlink" version="1.1" viewBox="-10 0 795 1000">
   <path fill="currentColor"
d="M244.684 260c-106.237 0.204102 -199.098 73.4453 -214.684 172.271h206.285c20.4893 -31.6904 51.6924 -49.6943 81.4756 -49.8213h150.491c116.914 0 107.041 58.2168 107.233 132.934c-22.0674 -25.0107 -57.1084 -41.5078 -100.73 -46.4268
c-45.002 -5.07422 -90.2344 -7.07227 -135.771 -7.11621c-14.1846 0.158203 -28.3652 0 -42.5498 0c-45.5352 0.0634766 -90.7656 2.04199 -135.768 7.11621c-68.249 7.69629 -115.66 43.6299 -124.894 96.3896c-7.63086 43.6162 -7.76465 87.4482 0 131.504
c9.30078 52.7529 56.6445 88.6924 124.894 96.3887c52 5.86426 104.313 7.60352 157.044 6.98535c52.7314 0.616211 105.042 -1.12109 157.044 -6.98535c44.7578 -5.04688 80.4297 -22.3027 102.371 -48.4199v55.4053h178.859v-338.384
c0 -111.474 -96.0938 -201.841 -214.631 -201.841h-296.671zM287.812 590.314h0.00292969h217.785c0.827148 20.7588 0.143555 65.0576 0.143555 65.0576c-5.23242 21.7979 -26.6699 25.1865 -58.0029 27.3379c-23.874 1.63867 -42.6074 2.125 -72.0977 1.95312
c-29.4883 0.173828 -49.9355 -0.313477 -87.8262 -1.95312c-49.7295 -2.15137 -84.2246 -12.1992 -91.002 -26.9482c-5.65723 -12.3164 -5.56055 -25.2402 0 -37.7666c6.72754 -15.1523 41.2725 -25.4697 91.002 -27.6807h-0.00488281z" />
</svg>
