<?xml version="1.0" standalone="no"?>
<!DOCTYPE svg PUBLIC "-//W3C//DTD SVG 1.1//EN" "http://www.w3.org/Graphics/SVG/1.1/DTD/svg11.dtd" >
<svg xmlns="http://www.w3.org/2000/svg" xmlns:xlink="http://www.w3.org/1999/xlink" version="1.1" viewBox="-10 0 1063 1000">
   <path fill="currentColor"
d="M299.47 34c-93.3926 -0.000976562 -169.104 58.0459 -169.104 129.649v67.0371v54.666c0 35.9746 27.5703 68.2598 69.374 81.3848h-0.636719c-93.3916 -0.00195312 -169.103 75.7061 -169.104 169.099v81.2676v4.39355c0 98.9834 80.2412 179.224 179.225 179.224
h17.4629h541.151c106.028 4.62012 195.726 -77.5889 200.345 -183.617v-92.0127v-44.1045h55.5859v-114.177h-55.5859v-21.9463h-200.345v21.9463h-440.786v-136.123h363.65v66.0518h200.345v-66.0518v-16.7217c0 -99.3926 -80.5742 -179.965 -179.966 -179.965h-384.029
h-27.583zM226.688 509.534h541.151v44.1055v92.0127h-541.151v-92.0127v-44.1055z" />
</svg>
