<?xml version="1.0" standalone="no"?>
<!DOCTYPE svg PUBLIC "-//W3C//DTD SVG 1.1//EN" "http://www.w3.org/Graphics/SVG/1.1/DTD/svg11.dtd" >
<svg xmlns="http://www.w3.org/2000/svg" xmlns:xlink="http://www.w3.org/1999/xlink" version="1.1" viewBox="-10 0 898 1000">
   <path fill="currentColor"
d="M251.36 270c-40.4873 1.96387 -77.6104 15.6035 -108.511 36.1201c-43.7598 29.0234 -77.7266 66.043 -105.662 102.819l-7.1875 9.4668l91.042 76.4951l7.98438 -10.0527c24.9736 -31.4209 49.6533 -59.1299 76.3721 -75.8652
c17.3164 -10.7881 35.1406 -17.5967 49.5244 -17.5967h0.420898h0.399414c13.2734 -0.884766 30.8398 3.71875 50.1377 11.0625c20.917 8.30566 43.2754 20.9336 68.0879 34.3916c26.6152 14.6387 55.1953 29.8691 86.7812 42.6387
c34.2344 13.8467 71.2383 23.4287 110.049 26.3174h0.109375c45.7129 3.02051 90.7168 -3.64844 132.621 -17.5361c56.6504 -18.8857 102.033 -56.3311 145.346 -87.624l9.71875 -7.01562l-66.3027 -100.23c-39.8008 28.2178 -85.8916 66.7549 -124.419 79.1328
c-29.6992 9.61621 -60.165 14.3018 -88.957 12.1211h-0.106445h-0.109375c-24.4961 -1.56348 -50.0264 -8.33398 -75.4453 -18.377c-23.6836 -9.36914 -48.1367 -22.5352 -74.2207 -36.7119h-0.109375c-23.9238 -13.1895 -50.2012 -27.8379 -80.1641 -40.123h-0.109375
c-28.4141 -11.9609 -61.2344 -19.9531 -97.0469 -19.3486h-0.214844z" />
</svg>
