<?xml version="1.0" standalone="no"?>
<!DOCTYPE svg PUBLIC "-//W3C//DTD SVG 1.1//EN" "http://www.w3.org/Graphics/SVG/1.1/DTD/svg11.dtd" >
<svg xmlns="http://www.w3.org/2000/svg" xmlns:xlink="http://www.w3.org/1999/xlink" version="1.1" viewBox="-10 0 1023 1000">
   <path fill="currentColor"
d="M70.1904 28.2178v0.185547h-40.1904v771.597h245.125v-0.797852h409.004c29.8662 2.31445 43.9639 -0.197266 69.207 -0.197266c127.257 -0.000976562 230.419 -88.2666 230.422 -197.152c0.000976562 -90.1924 -70.8057 -166.188 -167.432 -189.644
c90.8379 -26.4346 156.219 -99.9844 156.217 -186.648c-0.00195312 -108.886 -103.163 -197.157 -230.42 -197.158c-7.5752 0 -17.8584 0 -26.374 -0.110352v-0.105469zM275.125 225.562h407.247c29.0186 -0.000976562 52.542 23.6162 52.541 52.752v5.9707
c-0.00195312 29.1318 -15.6514 58.8184 -44.668 58.8174h-415.12v-117.54zM275.125 504.167h299.567h129.827c29.0156 -0.00195312 41.6055 9.82715 41.6064 38.96v5.96973c0.00195312 29.0977 -23.4639 52.6924 -52.4297 52.752h-418.571v-97.6816z" />
</svg>
