<?xml version="1.0" standalone="no"?>
<!DOCTYPE svg PUBLIC "-//W3C//DTD SVG 1.1//EN" "http://www.w3.org/Graphics/SVG/1.1/DTD/svg11.dtd" >
<svg xmlns="http://www.w3.org/2000/svg" xmlns:xlink="http://www.w3.org/1999/xlink" version="1.1" viewBox="-10 0 806 1000">
   <path fill="currentColor"
d="M371.93 260c-58.4395 0.102539 -116.491 3.26074 -174.243 11.3613c-87.5879 12.2852 -148.428 69.6445 -160.276 153.863c-9.79395 69.624 -9.96484 139.591 0 209.915c11.9355 84.208 72.6885 141.578 160.276 153.862c66.7354 9.36035 133.87 12.1396 201.541 11.1523
c67.6738 0.984375 134.809 -1.79199 201.545 -11.1523c87.5859 -12.2842 148.341 -69.6543 160.277 -153.862c2.52246 -17.8076 4.38281 -35.5918 5.61719 -53.3525h-167.474c-7.11328 39.6426 -40.4844 66.6289 -88.4277 72.4541
c-36.9326 4.48633 -74.085 5.82031 -111.538 5.3457c-37.4502 0.477539 -74.6035 -0.862305 -111.535 -5.3457c-48.4756 -5.88867 -82.0967 -33.3887 -88.7002 -73.7539c-5.51465 -33.71 -5.41992 -67.249 0 -100.624c6.55566 -40.3701 40.2246 -67.8633 88.7002 -73.751
c31.9619 -3.88477 64.085 -5.41016 96.4248 -5.45117c10.0742 -0.00195312 20.1484 0.121094 30.2217 0c32.3408 0 64.4639 1.56641 96.4268 5.45117c31.9844 3.88477 57.4541 17.2207 73.0137 37.4092h179.525c-0.709961 -6.10059 -1.39844 -12.2021 -2.25488 -18.2969
c-11.8486 -84.2188 -72.6914 -141.578 -160.277 -153.863c-57.7529 -8.10059 -115.805 -11.29 -174.243 -11.3613c-18.2002 0.25293 -36.4004 0 -54.5996 0z" />
</svg>
