<?xml version="1.0" standalone="no"?>
<!DOCTYPE svg PUBLIC "-//W3C//DTD SVG 1.1//EN" "http://www.w3.org/Graphics/SVG/1.1/DTD/svg11.dtd" >
<svg xmlns="http://www.w3.org/2000/svg" xmlns:xlink="http://www.w3.org/1999/xlink" version="1.1" viewBox="-10 0 820 1000">
   <path fill="currentColor"
d="M780.875 33h-197.812v283.542c-38.6084 -33.1641 -88.8428 -53.2051 -143.963 -53.2051h-188.307c-122.318 0 -220.793 98.4727 -220.793 220.791v94.8018c0 122.317 98.4746 220.791 220.793 220.791h188.307c55.1201 0 105.354 -20.041 143.963 -53.2051v53.2051
h197.812v-766.721zM488.25 416.36c52.5264 0 94.8125 42.2842 94.8125 94.8105v40.7148c0 52.5273 -42.2861 94.8115 -94.8125 94.8115h-168.161c-52.5264 0 -94.8115 -42.2842 -94.8115 -94.8115v-40.7148c0 -52.5264 42.2852 -94.8105 94.8115 -94.8105h168.161z" />
</svg>
