<?xml version="1.0" standalone="no"?>
<!DOCTYPE svg PUBLIC "-//W3C//DTD SVG 1.1//EN" "http://www.w3.org/Graphics/SVG/1.1/DTD/svg11.dtd" >
<svg xmlns="http://www.w3.org/2000/svg" xmlns:xlink="http://www.w3.org/1999/xlink" version="1.1" viewBox="-10 0 980 1000">
   <path fill="currentColor"
d="M469.099 30v0.166016c-72.334 0.439453 -144.246 3.20117 -215.799 9.83398c-116.642 10.8135 -197.664 61.2998 -213.439 135.426c-5.6748 26.6621 -8.77539 53.3857 -9.53516 80.1631h-0.325195c0 2.02441 0.12793 4.04688 0.166016 6.07129
c-0.0380859 2.04688 -0.166016 4.09082 -0.166016 6.13867h0.328125c0.759766 26.7764 3.86035 53.499 9.53516 80.1611c6.50488 30.5625 24.251 54.3447 50.8623 72.6094c-26.6123 21.4014 -44.3574 47.8623 -50.8623 78.4258
c-5.67383 26.6621 -8.77539 53.3857 -9.53516 80.1631h-0.324219c0 2.02441 0.124023 4.04688 0.166016 6.07129c-0.0419922 2.0459 -0.166016 4.09082 -0.166016 6.13867h0.328125c0.759766 26.7764 3.86035 53.499 9.53613 80.1611
c15.7754 74.126 96.7949 108.911 213.438 119.724c71.5518 6.63281 143.464 9.39551 215.797 9.83398v0.155273h16.2363h16.2344v-0.151367c72.332 -0.439453 144.244 -3.20117 215.796 -9.83398c116.643 -10.8125 197.662 -45.5977 213.438 -119.724
c5.6748 -26.6621 8.77539 -53.3848 9.53516 -80.1611h0.329102c0 -2.04785 -0.136719 -4.09277 -0.166992 -6.13867c0.0419922 -2.02441 0.166992 -4.04688 0.166992 -6.07129h-0.325195c-0.759766 -26.7773 -3.86133 -53.501 -9.53516 -80.1631
c-6.50488 -30.5635 -24.249 -57.0244 -50.8623 -78.4258c26.6133 -18.2646 44.3594 -42.0479 50.8643 -72.6113c5.6748 -26.6621 8.77539 -53.3848 9.53516 -80.1611h0.329102c0 -2.04785 -0.135742 -4.0918 -0.166016 -6.13867
c0.0410156 -2.02441 0.166016 -4.04688 0.166016 -6.07129h-0.321289c-0.759766 -26.7773 -3.86035 -53.501 -9.53516 -80.1631c-15.7764 -74.126 -96.7979 -124.612 -213.44 -135.425c-71.5518 -6.63379 -143.464 -9.39551 -215.799 -9.83398v-0.166992h-16.2402h-16.2402z
M485.244 153.948c37.6182 0.329102 75.0322 1.66504 112.272 4.65527c64.5518 5.18262 109.393 29.3818 118.12 64.9141c3.11914 12.6924 4.8291 25.4141 5.26855 38.1611c-0.43457 12.7559 -2.14844 25.4883 -5.27051 38.1895
c-8.72852 35.5332 -53.5684 44.0303 -118.12 49.2129c-33.7832 2.71289 -67.7178 4.01758 -101.81 4.49023c-3.45703 0.000976562 -6.91309 0 -10.3701 0c-3.40723 0 -6.81445 0.000976562 -10.2217 0c-34.1387 -0.470703 -68.1201 -1.77539 -101.948 -4.49219
c-64.5527 -5.18262 -109.393 -13.6797 -118.121 -49.2129c-3.12109 -12.7012 -4.83594 -25.4336 -5.27051 -38.1895c0.439453 -12.7471 2.14941 -25.4688 5.26855 -38.1611c8.72754 -35.5322 53.5684 -59.7305 118.12 -64.9131
c37.1777 -2.98535 74.5283 -4.32227 112.082 -4.6543zM495.226 477.676c34.2549 0.466797 68.3516 1.77148 102.295 4.49707c64.5518 5.18262 109.393 29.3818 118.12 64.9141c3.12012 12.6924 4.8291 25.4141 5.26953 38.1611
c-0.435547 12.7568 -2.14941 25.4883 -5.27148 38.1895c-8.72754 35.5322 -53.5684 44.0303 -118.12 49.2119c-37.1758 2.98633 -74.5264 4.32324 -112.079 4.65332c-37.6182 -0.328125 -75.0312 -1.66406 -112.271 -4.6543
c-64.5518 -5.18262 -109.392 -13.6807 -118.12 -49.2129c-3.12109 -12.7012 -4.83594 -25.4326 -5.27051 -38.1895c0.439453 -12.7471 2.14746 -25.4678 5.2666 -38.1611c8.72852 -35.5322 53.5703 -59.7305 118.122 -64.9141
c33.8799 -2.71973 67.9121 -4.02441 102.103 -4.49316c3.35547 0.00195312 6.71094 0 10.0664 0v0c3.29395 0 6.58789 -0.00390625 9.88184 0z" />
</svg>
