<?xml version="1.0" standalone="no"?>
<!DOCTYPE svg PUBLIC "-//W3C//DTD SVG 1.1//EN" "http://www.w3.org/Graphics/SVG/1.1/DTD/svg11.dtd" >
<svg xmlns="http://www.w3.org/2000/svg" xmlns:xlink="http://www.w3.org/1999/xlink" version="1.1" viewBox="-10 0 1105 1000">
   <path fill="currentColor"
d="M510.577 30c-82.1348 0.143555 -163.725 4.65527 -244.897 16.2168c-123.104 17.5342 -208.615 99.4033 -225.267 219.609c-13.7637 99.375 -14.0039 199.239 0 299.613c16.7744 120.19 102.162 202.075 225.267 219.609c93.7979 13.3604 188.156 17.3262 283.271 15.918
c95.1113 1.4043 189.472 -2.55762 283.269 -15.918c123.106 -17.5342 208.496 -99.4189 225.269 -219.609c3.5459 -25.416 6.16113 -50.7988 7.89648 -76.1504v-126.045h-517.694v126.045h282.314c-10.0029 56.583 -56.9053 95.1006 -124.286 103.414
c-51.9121 6.40332 -104.13 8.30664 -156.768 7.63086c-52.6367 0.680664 -104.856 -1.23242 -156.769 -7.63086c-68.126 -8.40527 -115.386 -47.6562 -124.666 -105.27c-7.75098 -48.1143 -7.61816 -95.9844 0 -143.621c9.21387 -57.6211 56.54 -96.8623 124.666 -105.266
c44.9258 -5.54395 90.0713 -7.72168 135.53 -7.7793c14.1562 -0.00390625 28.3184 0.173828 42.4746 0c45.458 0 90.6064 2.23535 135.531 7.7793c44.9482 5.54492 80.749 16.5801 102.618 45.3945l249.392 -0.585938l-0.241211 -17.5293
c-1.66406 -121.342 -102.162 -202.075 -225.269 -219.609c-81.1729 -11.5615 -162.763 -16.1152 -244.896 -16.2168c-25.585 0.363281 -51.1602 0 -76.7461 0h0.00195312z" />
</svg>
