<?xml version="1.0" standalone="no"?>
<!DOCTYPE svg PUBLIC "-//W3C//DTD SVG 1.1//EN" "http://www.w3.org/Graphics/SVG/1.1/DTD/svg11.dtd" >
<svg xmlns="http://www.w3.org/2000/svg" xmlns:xlink="http://www.w3.org/1999/xlink" version="1.1" viewBox="-10 0 1225 1000">
   <path fill="currentColor"
d="M439.519 260c-85.6084 0.0722656 -166.989 33.3555 -223.104 91.293v-91.293h-186.414l0.5 540.343h186.414l-0.5 -250.57c0.0791016 -69.5791 57.0566 -125.574 127.816 -125.574h53.5342c70.8105 0 127.816 56.0742 127.816 125.723c0 0 0.5 77.5791 0.5 250.422
h186.411l-0.5 -173.67v-137.133c22.9561 -33.2314 61.6885 -54.9912 105.788 -54.9912h53.5352c70.8105 0 127.816 56.0742 127.816 125.722v240.072h186.409v-163.32v-204.535c0 -79.8984 -102.399 -138.055 -186.409 -160.966
c-27.8965 -7.62305 -56.8994 -11.5049 -86.0635 -11.5215c-85.6084 0.0722656 -166.989 43.7041 -223.104 101.642v0.344727c-34.6074 -44.7041 -104.125 -74.0312 -164.383 -90.4639c-27.8955 -7.62207 -56.8975 -11.5049 -86.0625 -11.5205v-0.00195312z" />
</svg>
