<?xml version="1.0" standalone="no"?>
<!DOCTYPE svg PUBLIC "-//W3C//DTD SVG 1.1//EN" "http://www.w3.org/Graphics/SVG/1.1/DTD/svg11.dtd" >
<svg xmlns="http://www.w3.org/2000/svg" xmlns:xlink="http://www.w3.org/1999/xlink" version="1.1" viewBox="-10 0 814 1000">
   <path fill="currentColor"
d="M374.688 260c-58.9111 0.101562 -117.429 3.26172 -175.647 11.3623c-88.2949 12.2842 -149.625 69.6436 -161.57 153.862c-9.87305 69.625 -10.0459 139.591 0 209.915c12.0322 84.209 73.2754 141.578 161.57 153.862c67.2725 9.36035 134.951 12.1396 203.17 11.1523
c68.2188 0.984375 135.894 -1.79199 203.168 -11.1523c88.2949 -12.2842 149.539 -69.6533 161.57 -153.862c10.0439 -70.3242 9.87109 -140.29 0 -209.915c-11.9434 -84.2188 -73.2754 -141.578 -161.57 -153.862c-58.2197 -8.10059 -116.734 -11.291 -175.646 -11.3623
c-18.3496 0.25293 -36.6963 0 -55.0449 0zM386.975 400.662c10.1543 -0.00292969 20.3125 0.121094 30.4658 0c32.6025 0 64.9863 1.56641 97.2061 5.4502c48.8643 5.8877 82.8057 33.3799 89.416 73.75c5.4668 33.375 5.56152 66.9141 0 100.624
c-6.6582 40.3652 -40.5518 67.8662 -89.416 73.7549c-37.2324 4.4873 -74.6826 5.81934 -112.437 5.3457c-37.7549 0.476562 -75.209 -0.862305 -112.438 -5.3457c-48.8662 -5.88867 -82.7598 -33.3896 -89.415 -73.7549c-5.56152 -33.71 -5.46582 -67.249 0 -100.624
c6.60742 -40.3701 40.5488 -67.8623 89.415 -73.75c32.2197 -3.88379 64.6016 -5.41016 97.2031 -5.4502z" />
</svg>
