<?xml version="1.0" standalone="no"?>
<!DOCTYPE svg PUBLIC "-//W3C//DTD SVG 1.1//EN" "http://www.w3.org/Graphics/SVG/1.1/DTD/svg11.dtd" >
<svg xmlns="http://www.w3.org/2000/svg" xmlns:xlink="http://www.w3.org/1999/xlink" version="1.1" viewBox="-10 0 1107 1000">
   <path fill="currentColor"
d="M510.58 30c-82.1377 0.143555 -163.729 4.65527 -244.9 16.2168c-123.104 17.5352 -208.614 99.4033 -225.267 219.609c-13.7627 99.376 -14.0049 199.239 0 299.613c16.7754 120.191 102.163 202.075 225.267 219.609c93.8008 13.3594 188.158 17.3262 283.271 15.917
c95.1133 1.4043 189.474 -2.55762 283.271 -15.917c123.104 -17.5342 208.494 -99.418 225.266 -219.609c14.0068 -100.374 13.7666 -200.237 0 -299.613c-16.6484 -120.206 -102.161 -202.074 -225.266 -219.609c-81.1729 -11.5615 -162.764 -16.1152 -244.9 -16.2168
c-25.5801 0.363281 -51.1582 0 -76.7412 0zM527.71 230.768c14.1611 -0.00390625 28.3193 0.173828 42.4795 0c45.4541 0 90.6055 2.23633 135.527 7.78027c68.1289 8.40332 115.454 47.6426 124.671 105.264c7.61816 47.6367 7.75195 95.5068 0 143.621
c-9.28418 57.6143 -56.542 96.8662 -124.671 105.271c-51.9102 6.40332 -104.127 8.30469 -156.767 7.62891c-52.6387 0.680664 -104.857 -1.23047 -156.767 -7.62891c-68.1289 -8.40527 -115.387 -47.6572 -124.667 -105.271c-7.75 -48.1143 -7.61719 -95.9844 0 -143.621
c9.21289 -57.6211 56.5381 -96.8604 124.667 -105.264c44.9209 -5.54395 90.0723 -7.72266 135.526 -7.78027z" />
</svg>
