<?xml version="1.0" standalone="no"?>
<!DOCTYPE svg PUBLIC "-//W3C//DTD SVG 1.1//EN" "http://www.w3.org/Graphics/SVG/1.1/DTD/svg11.dtd" >
<svg xmlns="http://www.w3.org/2000/svg" xmlns:xlink="http://www.w3.org/1999/xlink" version="1.1" viewBox="-10 0 814 1000">
   <path fill="currentColor"
d="M435.472 50l-121.801 150.744l33.7305 35.3223l143.346 -120.084zM374.688 261.184c-58.9102 0.101562 -117.43 3.26074 -175.647 11.3613c-88.2949 12.2852 -149.625 69.6445 -161.57 153.863c-9.87305 69.624 -10.0459 139.592 0 209.916
c12.0322 84.208 73.2754 141.576 161.57 153.861c67.2725 9.36035 134.951 12.1396 203.17 11.1523c68.2178 0.983398 135.895 -1.79199 203.169 -11.1523c88.2949 -12.2852 149.537 -69.6533 161.568 -153.861c10.0439 -70.3242 9.87109 -140.292 0 -209.916
c-11.9434 -84.2188 -73.2734 -141.578 -161.568 -153.863c-58.2197 -8.10059 -116.735 -11.291 -175.646 -11.3613c-18.3496 0.25293 -36.6963 0 -55.0459 0zM386.976 401.846c10.1543 -0.00292969 20.3115 0.121094 30.4648 0c32.6025 0 64.9873 1.56543 97.207 5.44922
c48.8643 5.8877 82.8047 33.3809 89.415 73.752c5.4668 33.375 5.56152 66.9131 0 100.623c-6.6582 40.3652 -40.5508 67.8652 -89.415 73.7539c-37.2334 4.48633 -74.6836 5.81934 -112.438 5.3457c-37.7559 0.476562 -75.209 -0.862305 -112.438 -5.3457
c-48.8672 -5.88867 -82.7607 -33.3887 -89.416 -73.7539c-5.56152 -33.71 -5.46582 -67.248 0 -100.623c6.60742 -40.3711 40.5488 -67.8643 89.416 -73.752c32.2188 -3.88379 64.6016 -5.40918 97.2031 -5.44922z" />
</svg>
