<?xml version="1.0" standalone="no"?>
<!DOCTYPE svg PUBLIC "-//W3C//DTD SVG 1.1//EN" "http://www.w3.org/Graphics/SVG/1.1/DTD/svg11.dtd" >
<svg xmlns="http://www.w3.org/2000/svg" xmlns:xlink="http://www.w3.org/1999/xlink" version="1.1" viewBox="-10 0 820 1000">
   <path fill="currentColor"
d="M30 1029.72h197.814v-283.542c38.6074 33.1641 88.8418 53.2051 143.965 53.2051h188.305c122.32 0 220.795 -98.4727 220.795 -220.791v-94.8008c0 -122.317 -98.4746 -220.792 -220.795 -220.792h-188.305c-55.123 0 -105.357 20.041 -143.965 53.2051v-53.2051
h-197.814v766.721zM322.627 646.36c-52.5273 0 -94.8125 -42.2842 -94.8125 -94.8105v-40.7148c0 -52.5264 42.2852 -94.8115 94.8125 -94.8115h168.162c52.5254 0 94.8125 42.2852 94.8125 94.8115v40.7148c0 52.5264 -42.2871 94.8105 -94.8125 94.8105h-168.162z" />
</svg>
