<?xml version="1.0" standalone="no"?>
<!DOCTYPE svg PUBLIC "-//W3C//DTD SVG 1.1//EN" "http://www.w3.org/Graphics/SVG/1.1/DTD/svg11.dtd" >
<svg xmlns="http://www.w3.org/2000/svg" xmlns:xlink="http://www.w3.org/1999/xlink" version="1.1" viewBox="-10 0 1432 1000">
   <path fill="currentColor"
d="M125.889 29c-53.1191 0 -95.8887 47.374 -95.8887 106.225v225.214c0 58.8506 42.7695 106.225 95.8887 106.225h342.991c53.1182 0 95.8828 -47.374 95.8828 -106.225v-225.214c0 -58.8506 -42.7646 -106.225 -95.8828 -106.225h-342.991zM946.924 33.3037
l-604.938 766.722h114.517l604.916 -766.722h-114.494zM207.725 133.424h179.318c27.7705 0 50.1279 24.7734 50.1279 55.541v117.739c0 30.7676 -22.3574 55.5303 -50.1279 55.5303h-179.318c-27.7705 0 -50.126 -24.7627 -50.126 -55.5303v-117.739
c0 -30.7676 22.3555 -55.541 50.126 -55.541zM953.743 362.362c-53.1191 0 -95.8877 47.3809 -95.8877 106.23v225.208c0 58.8506 42.7686 106.225 95.8877 106.225h342.991c53.1191 0 95.8828 -47.374 95.8828 -106.225v-225.208
c0 -58.8496 -42.7637 -106.23 -95.8828 -106.23h-342.991zM1035.58 466.791h179.318c27.7705 0 50.1279 24.7695 50.1279 55.5371v117.738c0 30.7676 -22.3574 55.5352 -50.1279 55.5352h-179.318c-27.7695 0 -50.127 -24.7676 -50.127 -55.5352v-117.738
c0 -30.7676 22.3574 -55.5371 50.127 -55.5371z" />
</svg>
