<?xml version="1.0" standalone="no"?>
<!DOCTYPE svg PUBLIC "-//W3C//DTD SVG 1.1//EN" "http://www.w3.org/Graphics/SVG/1.1/DTD/svg11.dtd" >
<svg xmlns="http://www.w3.org/2000/svg" xmlns:xlink="http://www.w3.org/1999/xlink" version="1.1" viewBox="-10 0 852 1000">
   <path fill="currentColor"
d="M214.755 33c-102.351 0 -184.755 102.84 -184.755 230.582c0 11.6504 0.701172 23.0869 2.0293 34.2627h197.133c-0.894531 -4.76074 -1.43262 -9.70703 -1.43262 -14.8193v-5.43066c0 -35.4219 22.8516 -63.9385 51.2305 -63.9385h288.188
c28.3809 0 51.2246 28.5166 51.2246 63.9385v5.43066c0 30.3975 -16.8447 55.6523 -39.5547 62.2207h-199.459c-50.9023 0 -92.168 41.2646 -92.168 92.1689v56.75v56.75h170.097v-16.8711c0 -22.0244 17.8535 -39.8789 39.8779 -39.8789h130.218
c102.351 0 184.75 -102.84 184.75 -230.583c0 -127.742 -82.3994 -230.582 -184.75 -230.582h-412.628zM284.034 633.171v167.201h170.097v-167.201h-170.097z" />
</svg>
