<?xml version="1.0" standalone="no"?>
<!DOCTYPE svg PUBLIC "-//W3C//DTD SVG 1.1//EN" "http://www.w3.org/Graphics/SVG/1.1/DTD/svg11.dtd" >
<svg xmlns="http://www.w3.org/2000/svg" xmlns:xlink="http://www.w3.org/1999/xlink" version="1.1" viewBox="-10 0 1046 1000">
   <path fill="currentColor"
d="M260.582 33.2773c-127.742 0 -230.582 101.95 -230.582 228.588c0 126.64 102.84 228.59 230.582 228.59h454.393c28.3438 6.50977 49.3691 31.5459 49.3691 61.6807v5.38477c0 35.1143 -28.5176 63.3838 -63.9395 63.3838h-359.68
c-35.4219 0 -63.9375 -28.2695 -63.9375 -63.3838v-5.38477c0 -5.06836 0.658203 -9.97266 1.7832 -14.6914h-246.039c-1.65234 11.0801 -2.53125 22.416 -2.53125 33.9668c0 126.639 102.846 228.589 230.59 228.589h515c127.742 0 230.582 -101.95 230.582 -228.589
s-102.84 -228.589 -230.582 -228.589h-454.393c-28.3438 -6.51074 -49.3672 -31.5459 -49.3672 -61.6816v-5.38379c0 -35.1152 28.5156 -63.3848 63.9375 -63.3848h359.68c35.4219 0 63.9375 28.2695 63.9375 63.3848v5.38379c0 5.06836 -0.658203 9.97266 -1.7832 14.6924
h246.039c1.65234 -11.0811 2.53125 -22.417 2.53125 -33.9678c0 -126.638 -102.846 -228.588 -230.588 -228.588h-515.002z" />
</svg>
