<?xml version="1.0" standalone="no"?>
<!DOCTYPE svg PUBLIC "-//W3C//DTD SVG 1.1//EN" "http://www.w3.org/Graphics/SVG/1.1/DTD/svg11.dtd" >
<svg xmlns="http://www.w3.org/2000/svg" xmlns:xlink="http://www.w3.org/1999/xlink" version="1.1" viewBox="-10 0 1046 1000">
   <path fill="currentColor"
d="M551.35 -188l-121.801 155.406l33.7305 36.416l143.346 -123.799zM260.584 31.416c-127.742 0 -230.584 101.952 -230.584 228.59s102.842 228.586 230.584 228.586h454.391c28.3438 6.51074 49.3691 31.5479 49.3691 61.6836v5.38477
c0 35.1143 -28.5176 63.3828 -63.9395 63.3828h-359.68c-35.4209 0 -63.9375 -28.2686 -63.9375 -63.3828v-5.38477c0 -5.06934 0.658203 -9.97363 1.78516 -14.6934h-246.043c-1.65137 11.0811 -2.5293 22.418 -2.5293 33.9668c0 126.639 102.847 228.588 230.59 228.588
h515c127.742 0 230.584 -101.949 230.584 -228.588c0 -126.637 -102.842 -228.588 -230.584 -228.588h-454.393c-28.3438 -6.51172 -49.3672 -31.5459 -49.3672 -61.6816v-5.38477c0 -35.1143 28.5146 -63.3848 63.9375 -63.3848h359.68
c35.4209 0 63.9395 28.2705 63.9395 63.3848v5.38477c0 5.06934 -0.65918 9.97266 -1.78516 14.6914h246.039c1.65137 -11.0811 2.5332 -22.415 2.5332 -33.9648c0 -126.638 -102.847 -228.59 -230.59 -228.59h-515z" />
</svg>
