<?xml version="1.0" standalone="no"?>
<!DOCTYPE svg PUBLIC "-//W3C//DTD SVG 1.1//EN" "http://www.w3.org/Graphics/SVG/1.1/DTD/svg11.dtd" >
<svg xmlns="http://www.w3.org/2000/svg" xmlns:xlink="http://www.w3.org/1999/xlink" version="1.1" viewBox="-10 0 778 1000">
   <path fill="currentColor"
d="M417.297 50l-121.801 150.744l33.7305 35.3223l143.346 -120.084zM197.258 261.729c-92.6572 0 -167.252 71.6143 -167.252 160.568c0 88.9551 74.5947 160.566 167.252 160.566h329.594c20.5586 4.57422 35.8086 22.1611 35.8086 43.3301v3.7793
c0 24.667 -20.6797 44.5254 -46.375 44.5254h-260.895c-25.6924 0 -46.3789 -19.8584 -46.3789 -44.5254v-3.7793c0 -3.56152 0.475586 -7.00879 1.28906 -10.3242h-178.467c-1.19434 7.78418 -1.83398 15.752 -1.83398 23.8652c0 88.9541 74.5996 160.562 167.258 160.562
h373.553c92.6572 0 167.252 -71.6084 167.252 -160.562c0 -88.9551 -74.5947 -160.568 -167.252 -160.568h-329.594c-20.5586 -4.5752 -35.8066 -22.1621 -35.8066 -43.3301v-3.78516c0 -24.666 20.6846 -44.5195 46.3789 -44.5195h260.893
c25.6924 0 46.375 19.8535 46.375 44.5195v3.78516c0 3.56152 -0.474609 7.00098 -1.28711 10.3164h178.465c1.19531 -7.7832 1.83398 -15.7432 1.83398 -23.8555c0 -88.9541 -74.5938 -160.568 -167.252 -160.568h-373.559z" />
</svg>
