<?xml version="1.0" standalone="no"?>
<!DOCTYPE svg PUBLIC "-//W3C//DTD SVG 1.1//EN" "http://www.w3.org/Graphics/SVG/1.1/DTD/svg11.dtd" >
<svg xmlns="http://www.w3.org/2000/svg" xmlns:xlink="http://www.w3.org/1999/xlink" version="1.1" viewBox="-10 0 986 1000">
   <path fill="currentColor"
d="M450.8 31c-73.0186 0.0644531 -145.552 2.85547 -217.715 9.94922c-109.441 10.7578 -185.465 60.9834 -200.266 134.73c-1.07324 5.33691 -1.93262 10.6807 -2.81934 16.0225v70.5889h224.316l-0.313477 -31.0674c-0.0947266 -15.251 21.8027 -47.0371 91.5469 -52.2803
c40.001 -3.00684 80.0752 -4.77246 120.483 -4.77246c12.5898 0.105469 25.1768 -0.00195312 37.7617 0c40.4121 0.0380859 80.5479 1.37207 120.487 4.77246c60.5674 5.15625 102.64 29.2324 110.829 64.583c3.46875 21.8506 4.44141 35.8809 -0.00195312 55.958
c-8.18945 35.3516 -33.4736 37.0127 -102.437 39.9609c-23.8457 1.01855 -134.514 0.890625 -140.617 1.32715v6.11328v135.913v6.11328c6.10352 0.436523 96.0898 -1.56934 140.617 1.32715c68.8799 4.48047 94.2471 4.60938 102.437 39.96
c6.3457 23.0137 4.75195 29.2754 0.00195312 55.959c-8.18945 35.3506 -50.2617 53.4268 -110.829 58.583c-39.9395 3.40039 -80.0752 4.73633 -120.487 4.77246c-12.585 0.00195312 -25.1719 -0.105469 -37.7617 0c-40.4082 0 -80.4824 -1.76562 -120.483 -4.77246
c-69.7441 -5.24414 -91.6416 -37.0293 -91.5469 -52.2803l0.313477 -25.0674h-224.316v70.5889c0.886719 5.3418 1.74609 10.6846 2.81934 16.0225c14.8008 73.7461 90.8242 123.973 200.266 134.73c72.1631 7.09375 144.696 9.88672 217.715 9.94922h0.00195312
c22.7451 -0.222656 45.4854 0 68.2285 0c73.0205 -0.0908203 145.551 -2.85547 217.715 -9.94922c109.442 -10.7568 185.462 -60.9854 200.264 -134.732c5.32422 -26.5254 8.2334 -53.1094 8.94727 -79.75h0.305664c0 -2.01465 -0.117188 -4.02539 -0.155273 -6.03906
c0.0380859 -2.03613 0.155273 -4.07129 0.155273 -6.1084h-0.30957c-0.712891 -26.6396 -3.62207 -53.2256 -8.94727 -79.75c-5.57812 -27.7959 -19.8701 -50.0195 -41.3525 -67.5127c21.4824 -17.4941 35.7744 -39.7188 41.3525 -67.5137
c5.3252 -26.5244 8.23438 -53.1104 8.94727 -79.75h0.30957c0 -2.03711 -0.128906 -4.07227 -0.155273 -6.1084c0.0380859 -2.01367 0.155273 -4.02441 0.155273 -6.03906h-0.305664c-0.713867 -26.6396 -3.62305 -53.2246 -8.94727 -79.75
c-14.8018 -73.7471 -90.8213 -123.976 -200.264 -134.732c-72.1641 -7.09375 -144.694 -9.86133 -217.715 -9.94922c-22.7432 0 -45.4834 0.222656 -68.2285 0h-0.00195312z" />
</svg>
