<?xml version="1.0" standalone="no"?>
<!DOCTYPE svg PUBLIC "-//W3C//DTD SVG 1.1//EN" "http://www.w3.org/Graphics/SVG/1.1/DTD/svg11.dtd" >
<svg xmlns="http://www.w3.org/2000/svg" xmlns:xlink="http://www.w3.org/1999/xlink" version="1.1" viewBox="-10 0 988 1000">
   <path fill="currentColor"
d="M451.94 33c-73.2168 0.0722656 -145.947 3.28906 -218.307 11.46c-109.738 12.3916 -185.967 70.248 -200.809 155.195c-1.0752 6.14746 -1.93652 12.3027 -2.8252 18.4551v81.3105h224.924l-0.313477 -48.8232c-0.0947266 -17.5684 21.8613 -54.1816 91.7949 -60.2207
c40.1104 -3.46387 80.2939 -5.49707 120.812 -5.49707c12.623 0.121094 25.2432 -0.00292969 37.8623 0c40.5225 0.0410156 80.7656 1.5791 120.813 5.49707c60.7314 5.93945 102.919 33.6699 111.13 74.3896c2.93555 14.5459 4.54199 19.124 4.95605 33.7324
c-0.410156 14.6182 -2.02051 29.207 -4.95801 43.7627c-8.21094 40.7207 -50.3984 50.458 -111.13 56.3975c-40.0469 3.91699 -80.291 5.45703 -120.813 5.49707c-12.6191 0 -25.2393 -0.125 -37.8623 0c-80.8926 -1.16797 -161.783 -2.5625 -242.676 -3.69141v0
c-177.644 0 -188.123 61.0723 -188.126 204.854l-0.00195312 108.975h0.00195312v84.6162h912.329v-171.258h-703.907l-0.537109 -63.8027c-0.109375 -9.15332 9.19727 -17.7559 23.6211 -17.7559h0.00195312l199.97 -0.0566406v-0.0449219
c17.4863 -0.0458984 34.9727 0.0449219 52.4609 0.0449219c73.2178 -0.101562 145.946 -3.28906 218.307 -11.46c109.738 -12.3906 185.964 -52.2539 200.806 -137.202c5.33887 -30.5537 8.25586 -61.1777 8.96973 -91.8633h0.310547
c0 -2.34668 -0.128906 -4.68945 -0.155273 -7.03516c0.0380859 -2.31934 0.155273 -4.63672 0.155273 -6.95605h-0.306641c-0.714844 -30.6865 -3.63086 -61.3096 -8.96973 -91.8643c-14.8418 -84.9473 -91.0684 -142.804 -200.807 -155.194
c-72.3594 -8.1709 -145.088 -11.3584 -218.306 -11.4609c-22.8057 0 -45.6064 0.257812 -68.4131 0h-0.00292969z" />
</svg>
