<?xml version="1.0" standalone="no"?>
<!DOCTYPE svg PUBLIC "-//W3C//DTD SVG 1.1//EN" "http://www.w3.org/Graphics/SVG/1.1/DTD/svg11.dtd" >
<svg xmlns="http://www.w3.org/2000/svg" xmlns:xlink="http://www.w3.org/1999/xlink" version="1.1" viewBox="-10 0 985 1000">
   <path fill="currentColor"
d="M266.863 52.2139c-123.954 18.5225 -210.055 105.011 -226.82 231.991c-14.1514 107.183 -12.6084 200.062 0 295.552c16.7656 126.98 102.865 186.568 226.819 205.091c72.9404 10.8994 239.192 30.2646 441.729 -0.000976562
c123.954 -18.5215 210.052 -78.1094 226.817 -205.091c14.1514 -107.181 12.6113 -200.064 0 -295.551c-16.7656 -126.98 -102.865 -213.469 -226.82 -231.991c-72.9023 -10.8945 -239.178 -30.2676 -441.729 0h0.00488281zM601.199 209.439
c83.2578 11.3789 141.092 64.5049 152.349 142.516c8.83887 61.2168 8.45801 109.036 -0.00195312 167.623c-11.2578 78.0098 -69.0918 96.666 -152.35 108.043c-83.9619 11.4785 -142.535 11.5381 -226.937 0c-83.2578 -11.377 -141.092 -30.0332 -152.35 -108.043
c-8.47754 -58.7197 -8.81738 -106.565 -0.00195312 -167.623c11.2568 -78.0107 69.0938 -131.137 152.352 -142.516c83.958 -11.4756 142.516 -11.54 226.939 0z" />
</svg>
