<?xml version="1.0" standalone="no"?>
<!DOCTYPE svg PUBLIC "-//W3C//DTD SVG 1.1//EN" "http://www.w3.org/Graphics/SVG/1.1/DTD/svg11.dtd" >
<svg xmlns="http://www.w3.org/2000/svg" xmlns:xlink="http://www.w3.org/1999/xlink" version="1.1" viewBox="-10 0 839 1000">
   <path fill="currentColor"
d="M339.9 260c-106.273 0.204102 -212.048 73.4453 -245.06 172.271h206.285c26.0771 -31.6904 60.4541 -49.6943 90.2598 -49.8213h150.491c116.914 0 96.7764 58.2168 83.7939 132.934c-17.6572 -25.0107 -49.7891 -41.5078 -92.5439 -46.4268
c-44.1074 -5.07422 -88.9873 -7.07227 -134.516 -7.11621c-14.2129 0.158203 -28.3652 0 -42.5498 0c-45.5469 0.0634766 -91.126 2.04199 -137.022 7.11621c-69.6064 7.69629 -123.354 43.6299 -141.89 96.3896c-15.3223 43.6162 -23.1846 87.4482 -23.1875 131.504
c-0.000976562 52.7529 41.0049 88.6924 107.897 96.3887c50.9658 5.86426 102.973 7.60352 155.812 6.98535c52.623 0.616211 105.24 -1.12109 158.276 -6.98535c45.6475 -5.04688 84.3623 -22.3027 110.908 -48.4199l-9.76953 55.4053h178.859l59.667 -338.384
c19.6553 -111.474 -60.5039 -201.841 -179.041 -201.841h-296.671zM324.786 590.314h0.00292969h217.785c-2.83398 20.7588 -11.3281 65.0576 -11.3281 65.0576c-9.07617 21.7979 -31.1113 25.1865 -62.8232 27.3379c-24.1631 1.63867 -42.9824 2.125 -72.4424 1.95312
c-29.5186 0.173828 -49.8799 -0.313477 -87.4814 -1.95312c-49.3506 -2.15137 -82.0742 -12.1992 -86.251 -26.9482c-3.48535 -12.3164 -1.10938 -25.2402 6.66016 -37.7666c9.39844 -15.1523 45.7627 -25.4697 95.8828 -27.6807h-0.00488281z" />
</svg>
