<?xml version="1.0" standalone="no"?>
<!DOCTYPE svg PUBLIC "-//W3C//DTD SVG 1.1//EN" "http://www.w3.org/Graphics/SVG/1.1/DTD/svg11.dtd" >
<svg xmlns="http://www.w3.org/2000/svg" xmlns:xlink="http://www.w3.org/1999/xlink" version="1.1" viewBox="-10 0 1121 1000">
   <path fill="currentColor"
d="M434.536 34c-93.3926 -0.000976562 -179.339 58.0459 -191.964 129.649l-11.8203 67.0371l-9.63965 54.666c-6.34277 35.9746 15.5342 68.2598 55.0234 81.3848h-0.636719c-93.3906 -0.00195312 -182.451 75.7061 -198.92 169.099l-14.3291 81.2676l-0.775391 4.39355
c-17.4531 98.9834 48.6396 179.224 147.623 179.224h17.4629h541.151c105.214 4.62012 209.406 -77.5889 232.722 -183.617l16.2236 -92.0127l7.77734 -44.1045h55.5859l20.1318 -114.177h-55.5859l3.87012 -21.9463h-200.345l-3.87012 21.9463h-440.786l24.0029 -136.123
h363.65l-11.6475 66.0518h200.345l11.6475 -66.0518l2.94824 -16.7217c17.5254 -99.3926 -48.8418 -179.965 -148.233 -179.965h-384.029h-27.583zM277.905 509.534h541.151l-7.77637 44.1055l-16.2246 92.0127h-541.151l16.2246 -92.0127z" />
</svg>
