<?xml version="1.0" standalone="no"?>
<!DOCTYPE svg PUBLIC "-//W3C//DTD SVG 1.1//EN" "http://www.w3.org/Graphics/SVG/1.1/DTD/svg11.dtd" >
<svg xmlns="http://www.w3.org/2000/svg" xmlns:xlink="http://www.w3.org/1999/xlink" version="1.1" viewBox="-10 0 839 1000">
   <path fill="currentColor"
d="M339.9 260c-106.273 0.204102 -212.048 73.4453 -245.06 172.271h206.285c26.0762 -31.6895 60.4561 -49.6953 90.2607 -49.8223h150.49c116.914 0 96.7773 58.2178 83.7949 132.934c-17.6572 -25.0107 -49.791 -41.5068 -92.5459 -46.4258
c-44.1074 -5.0752 -88.9863 -7.07227 -134.515 -7.11719c-14.2129 0.15918 -28.3652 0 -42.5488 0c-45.5469 0.0644531 -91.127 2.04199 -137.022 7.11719c-69.6064 7.69629 -123.354 43.6289 -141.891 96.3887c-15.3223 43.6172 -23.1846 87.4482 -23.1875 131.504
c-0.000976562 52.7529 41.0059 88.6943 107.898 96.3906c50.9658 5.86426 102.972 7.60254 155.811 6.98438c52.624 0.616211 105.239 -1.12012 158.275 -6.98438c45.6484 -5.04688 84.3643 -22.3037 110.911 -48.4219l-9.77051 55.4062h30.9629
c-22.3799 26.8916 -41.373 67.3945 -23.7412 107.1c21.4658 48.3389 82.4697 63.6436 159.917 26.4219l-19.2393 -41.9648c-57.7422 27.751 -68.0342 -23.8467 -69.2217 -27.8965c-3.90137 -13.3057 -5.41211 -34.8711 7.89062 -63.6602h92.2891l59.667 -338.385
c19.6553 -111.474 -60.502 -201.84 -179.039 -201.84h-296.672zM324.786 590.314h0.0078125h217.783c-2.83398 20.7588 -11.3291 65.0586 -11.3291 65.0586c-9.07617 21.7979 -31.1104 25.1865 -62.8223 27.3379c-24.1631 1.63867 -42.9834 2.125 -72.4424 1.95312
c-29.5186 0.173828 -49.8809 -0.313477 -87.4814 -1.95312c-49.3516 -2.15137 -82.0752 -12.2002 -86.251 -26.9492c-3.48633 -12.3164 -1.10938 -25.2393 6.65918 -37.7656c9.39844 -15.1514 45.7607 -25.4707 95.8779 -27.6816h-0.00195312z" />
</svg>
