<?xml version="1.0" standalone="no"?>
<!DOCTYPE svg PUBLIC "-//W3C//DTD SVG 1.1//EN" "http://www.w3.org/Graphics/SVG/1.1/DTD/svg11.dtd" >
<svg xmlns="http://www.w3.org/2000/svg" xmlns:xlink="http://www.w3.org/1999/xlink" version="1.1" viewBox="-10 0 951 1000">
   <path fill="currentColor"
d="M344.813 270c-40.833 1.96387 -80.3613 15.6035 -114.88 36.1201c-48.877 29.0234 -89.3711 66.043 -123.792 102.819l-8.85645 9.4668l77.5537 76.4951l9.75684 -10.0527c30.5146 -31.4209 60.0801 -59.1299 89.749 -75.8652
c19.2188 -10.7881 38.2441 -17.5967 52.6279 -17.5967h0.420898h0.399414c13.4287 -0.884766 30.1836 3.71875 48.1865 11.0625c19.4531 8.30566 39.585 20.9336 62.0244 34.3916c24.0332 14.6387 49.9277 29.8691 79.2627 42.6387
c31.793 13.8467 67.1074 23.4287 105.408 26.3174h0.109375c45.1807 3.02051 91.3604 -3.64844 135.713 -17.5361c59.9805 -18.8857 111.966 -56.3311 160.797 -87.624l10.9551 -7.01562l-48.6289 -100.23c-44.7764 28.2178 -97.6621 66.7549 -138.372 79.1328
c-31.3955 9.61621 -62.6875 14.3018 -91.0947 12.1211h-0.106445h-0.109375c-24.2207 -1.56348 -48.5566 -8.33398 -72.2051 -18.377c-22.0312 -9.36914 -44.1631 -22.5352 -67.7471 -36.7119h-0.109375c-21.5986 -13.1895 -45.293 -27.8379 -73.0898 -40.123h-0.109375
c-26.3047 -11.9609 -57.7158 -19.9531 -93.6348 -19.3486h-0.214844z" />
</svg>
