<?xml version="1.0" standalone="no"?>
<!DOCTYPE svg PUBLIC "-//W3C//DTD SVG 1.1//EN" "http://www.w3.org/Graphics/SVG/1.1/DTD/svg11.dtd" >
<svg xmlns="http://www.w3.org/2000/svg" xmlns:xlink="http://www.w3.org/1999/xlink" version="1.1" viewBox="-10 0 1097 1000">
   <path fill="currentColor"
d="M206.276 28.2178l-0.0322266 0.185547h-40.1904l-136.054 771.597h245.125l0.140625 -0.797852h409.004c29.458 2.31445 43.999 -0.197266 69.2422 -0.197266c127.257 -0.000976562 245.982 -88.2666 265.185 -197.152
c15.9043 -90.1924 -41.502 -166.188 -133.992 -189.644c95.499 -26.4346 173.849 -99.9844 189.128 -186.648c19.1973 -108.886 -68.3984 -197.157 -195.655 -197.158c-7.5752 0 -17.8584 0 -26.3545 -0.110352l0.0185547 -0.105469zM376.414 225.562h407.247
c29.0186 -0.000976562 48.3779 23.6162 43.2393 52.752l-1.05273 5.9707c-5.13867 29.1318 -26.0225 58.8184 -55.0391 58.8174h-415.12zM327.288 504.167h299.567h129.827c29.0166 -0.00195312 39.873 9.82715 34.7373 38.96l-1.05273 5.96973
c-5.12891 29.0977 -32.7549 52.6924 -61.7314 52.752h-418.571z" />
</svg>
