<?xml version="1.0" standalone="no"?>
<!DOCTYPE svg PUBLIC "-//W3C//DTD SVG 1.1//EN" "http://www.w3.org/Graphics/SVG/1.1/DTD/svg11.dtd" >
<svg xmlns="http://www.w3.org/2000/svg" xmlns:xlink="http://www.w3.org/1999/xlink" version="1.1" viewBox="-10 0 555 1000">
   <path fill="currentColor"
d="M366.271 29.001c-50.4951 0.000976562 -99.5088 45.8379 -109.478 102.378l-22.1533 125.641l-3.97461 22.541l-1.52441 8.64258c-2.94922 16.2188 -10.1826 31.4443 -20.1475 44.2227c-18.127 23.5195 -45.6445 39.1172 -73.9404 39.2256
c-10.4033 -0.0878906 -20.0146 -2.32715 -28.4199 -6.25586c0.0556641 0.0361328 -10.2656 58.2168 -10.2656 58.2168l-10.2656 58.2178c9.79199 -3.92871 20.1924 -6.16797 30.627 -6.25488c28.2568 0.107422 50.2744 15.7051 60.1064 39.2246
c5.45898 12.7783 7.32324 28.0039 4.55371 44.2227c-0.0332031 -0.0976562 -2.2998 13.041 -2.2998 13.041l-22.1533 125.64c-9.9707 56.541 22.8779 102.377 73.3721 102.378h91.4287h77.0186l25.168 -142.735h-15.874c-33.7666 0 -57.752 -19.2344 -51.085 -57.0459
l4.97852 -28.2363l3.97461 -22.543l5.08496 -28.8379l3.21191 -18.2168l1.02539 -5.81055l0.811523 -4.60449c5.93164 -33.6377 -7.27344 -62.4639 -31.1729 -74.6055c28.1816 -12.1406 51.5518 -40.9678 57.4824 -74.6045
c0.0537109 -0.0351562 1.83691 -10.415 1.83691 -10.415l4.23633 -24.0273l5.08496 -28.8379l3.97461 -22.542l4.97852 -28.2363c6.66797 -37.8105 37.4375 -57.0469 71.2041 -57.0469h15.874l25.168 -142.735h-77.0186z" />
</svg>
