<?xml version="1.0" standalone="no"?>
<!DOCTYPE svg PUBLIC "-//W3C//DTD SVG 1.1//EN" "http://www.w3.org/Graphics/SVG/1.1/DTD/svg11.dtd" >
<svg xmlns="http://www.w3.org/2000/svg" xmlns:xlink="http://www.w3.org/1999/xlink" version="1.1" viewBox="-10 0 848 1000">
   <path fill="currentColor"
d="M467.146 260c-58.458 0.102539 -117.066 3.26074 -176.247 11.3613c-89.7539 12.2852 -160.708 69.6445 -187.406 153.863c-22.0703 69.624 -34.5781 139.591 -37.0137 209.915c-2.91309 84.208 47.7246 141.578 133.146 153.862
c65.085 9.36035 131.729 12.1396 199.574 11.1523c67.5 0.984375 135.125 -1.79199 203.512 -11.1523c89.752 -12.2842 160.622 -69.6543 187.407 -153.862c5.66211 -17.8076 10.6582 -35.5918 15.0244 -53.3525h-167.474
c-14.1035 39.6426 -52.2324 66.6289 -101.203 72.4541c-37.7236 4.48633 -75.1113 5.82031 -112.48 5.3457c-37.5342 0.477539 -74.4512 -0.862305 -110.593 -5.3457c-47.4375 -5.88867 -76.209 -33.3887 -75.6953 -73.7539
c0.429688 -33.71 6.4375 -67.249 17.7432 -100.624c13.6738 -40.3701 52.1904 -67.8633 101.704 -73.751c32.6465 -3.88477 65.0391 -5.41016 97.3857 -5.45117c10.0752 -0.00195312 20.127 0.121094 30.2217 0c32.3408 0 64.1875 1.56641 95.4658 5.45117
c31.2988 3.88477 54.418 17.2207 66.417 37.4092h179.525c0.366211 -6.10059 0.753906 -12.2021 0.97168 -18.2969c3.00098 -84.2188 -47.7275 -141.578 -133.147 -153.863c-56.3242 -8.10059 -113.813 -11.29 -172.239 -11.3613c-18.2451 0.25293 -36.4004 0 -54.5996 0z
" />
</svg>
