<?xml version="1.0" standalone="no"?>
<!DOCTYPE svg PUBLIC "-//W3C//DTD SVG 1.1//EN" "http://www.w3.org/Graphics/SVG/1.1/DTD/svg11.dtd" >
<svg xmlns="http://www.w3.org/2000/svg" xmlns:xlink="http://www.w3.org/1999/xlink" version="1.1" viewBox="-10 0 1173 1000">
   <path fill="currentColor"
d="M755.165 -188l-149.204 155.406l27.3105 36.416l165.174 -123.799zM646.847 27.1699c-82.1592 0.143555 -164.544 4.6543 -247.755 16.2168c-126.196 17.5342 -226.144 99.4033 -263.991 219.609c-31.2852 99.375 -49.1348 199.239 -52.8301 299.613
c-4.41797 120.19 66.5332 202.075 186.546 219.609c91.4404 13.3604 185.101 17.3262 280.462 15.918c94.8682 1.4043 189.922 -2.55762 286.079 -15.918c126.195 -17.5342 226.024 -99.4189 263.987 -219.609c8.02734 -25.416 15.123 -50.7988 21.3242 -76.1504h-235.378
c-19.9834 56.582 -73.6748 95.1006 -142.522 103.414c-53.04 6.40332 -105.596 8.30664 -158.113 7.63086c-52.7559 0.680664 -104.638 -1.23145 -155.422 -7.63086c-66.6426 -8.40527 -106.98 -47.6562 -106.104 -105.27
c0.731445 -48.1152 9.30469 -95.9844 25.3242 -143.621c19.376 -57.6211 73.6201 -96.8623 143.227 -105.266c45.9023 -5.54395 91.4316 -7.72168 136.899 -7.7793c14.1572 0 28.29 0.173828 42.4766 0c45.458 0 90.2109 2.23535 134.159 7.7793
c43.9707 5.54492 76.416 24.5801 93.2021 53.3945h252.321c0.539062 -8.70703 1.10645 -17.416 1.43555 -26.1152c4.54785 -120.206 -66.5303 -202.075 -186.542 -219.609c-79.1357 -11.5625 -159.924 -16.1152 -242.039 -16.2168c-25.6465 0.362305 -51.1611 0 -76.7471 0z
" />
</svg>
