<?xml version="1.0" standalone="no"?>
<!DOCTYPE svg PUBLIC "-//W3C//DTD SVG 1.1//EN" "http://www.w3.org/Graphics/SVG/1.1/DTD/svg11.dtd" >
<svg xmlns="http://www.w3.org/2000/svg" xmlns:xlink="http://www.w3.org/1999/xlink" version="1.1" viewBox="-10 0 848 1000">
   <path fill="currentColor"
d="M564.018 49l-148.382 150.746l27.5029 35.3203l164.52 -120.084zM467.112 260.184c-58.458 0.101562 -117.065 3.26074 -176.246 11.3613c-89.7549 12.2852 -160.708 69.6445 -187.405 153.863c-22.0713 69.624 -34.5801 139.592 -37.0137 209.916
c-2.91406 84.208 47.7227 141.577 133.146 153.861c65.085 9.36035 131.729 12.1396 199.574 11.1523c67.499 0.983398 135.125 -1.79199 203.512 -11.1523c89.752 -12.2842 160.622 -69.6533 187.407 -153.861c5.66211 -17.8076 10.6582 -35.5918 15.0244 -53.3535
h-167.473c-14.1035 39.6426 -52.2334 66.6279 -101.203 72.4531c-37.7246 4.48633 -75.1123 5.82129 -112.482 5.34766c-37.5352 0.476562 -74.4502 -0.864258 -110.592 -5.34766c-47.4385 -5.88867 -76.209 -33.3887 -75.6943 -73.7539
c0.429688 -33.71 6.43652 -67.248 17.7422 -100.623c13.6738 -40.3701 52.1895 -67.8643 101.704 -73.752c32.6455 -3.88379 65.0381 -5.4082 97.3867 -5.44922c10.0732 -0.00292969 20.126 0.121094 30.2207 0c32.3408 0 64.1875 1.56543 95.4668 5.44922
c31.2979 3.88477 54.416 17.2227 66.417 37.4102h179.523c0.366211 -6.10059 0.753906 -12.2021 0.972656 -18.2969c3.00098 -84.2188 -47.7275 -141.578 -133.147 -153.863c-56.3242 -8.10059 -113.812 -11.291 -172.238 -11.3613c-18.2451 0.25293 -36.4023 0 -54.6016 0z
" />
</svg>
