<?xml version="1.0" standalone="no"?>
<!DOCTYPE svg PUBLIC "-//W3C//DTD SVG 1.1//EN" "http://www.w3.org/Graphics/SVG/1.1/DTD/svg11.dtd" >
<svg xmlns="http://www.w3.org/2000/svg" xmlns:xlink="http://www.w3.org/1999/xlink" version="1.1" viewBox="-10 0 846 1000">
   <path fill="currentColor"
d="M466.469 260c-58.3418 0.101562 -116.833 3.26074 -175.9 11.3613c-89.5811 12.2852 -160.415 69.6445 -187.091 153.863c-22.0508 69.624 -34.5586 139.593 -37.0137 209.916c-2.93555 84.208 47.582 141.576 132.831 153.861
c57.1592 8.2373 115.588 11.1855 174.919 11.1484c-22.4873 26.8848 -41.6562 67.499 -23.9375 107.309c21.5127 48.3281 82.6133 63.6299 160.163 26.416l-19.2803 -41.957c-57.8184 27.7451 -68.1406 -23.8428 -69.3311 -27.8926
c-3.9209 -13.3379 -5.44727 -34.9775 7.98535 -63.8789c56.9697 -0.211914 114.092 -3.23438 171.77 -11.1445c89.5801 -12.2852 158.92 -61.6533 185.679 -145.861c1.0293 -3.2373 1.92578 -6.46973 2.91113 -9.70508h-185.678
c-18.3789 15.3799 -41.2363 17.501 -68.9775 20.8066c-37.6523 4.48633 -74.9639 5.81738 -112.259 5.34375c-37.4619 0.476562 -74.3096 -0.860352 -110.376 -5.34375c-38.2979 -4.76465 -64.3828 -23.6816 -72.6787 -52.1016h193.084h193.281h171.763
c4.40332 -17.1152 8.37012 -34.2129 11.9385 -51.293h0.0380859c0.100586 -0.570312 0.199219 -1.13965 0.338867 -1.70898c0.574219 -2.76367 1.15918 -5.52832 1.71094 -8.29102h-0.113281c0.419922 -2.16504 0.862305 -4.33105 1.25879 -6.49414l1.51465 -8.5918
c2.15234 -12.6523 3.75488 -25.2871 5.20312 -37.9141h0.0908203c0.166016 -1.54199 0.365234 -3.65332 0.540039 -5.29883c0.0976562 -0.898438 0.22168 -1.79688 0.319336 -2.69531h-0.0449219c1.86133 -17.4531 4.01172 -38.7656 4.58203 -54.6289
c3.02441 -84.2188 -47.583 -141.578 -132.831 -153.863c-56.2109 -8.10059 -113.58 -11.29 -171.891 -11.3613c-18.2119 0.25293 -36.332 0 -54.498 0h-0.0205078zM453.83 400.662c10.0547 -0.00292969 20.0898 0.121094 30.1621 0
c32.2783 0 64.0645 1.56738 95.2773 5.45117c44.1748 5.49414 70.9141 36.7744 73.8291 73.7324l-362.776 0.00195312h-35.209c13.666 -40.3623 52.1113 -67.8477 101.521 -73.7344c32.582 -3.88379 64.9121 -5.41113 97.1953 -5.45117z" />
</svg>
