<?xml version="1.0" standalone="no"?>
<!DOCTYPE svg PUBLIC "-//W3C//DTD SVG 1.1//EN" "http://www.w3.org/Graphics/SVG/1.1/DTD/svg11.dtd" >
<svg xmlns="http://www.w3.org/2000/svg" xmlns:xlink="http://www.w3.org/1999/xlink" version="1.1" viewBox="-10 0 1105 1000">
   <path fill="currentColor"
d="M172.184 30l-14.9678 84.8867h-0.00195312l-19.2744 109.324l-36.2373 205.512h188.126c81.0918 -1.13281 162.228 -2.53125 243.327 -3.7041c12.6006 0.125 25.2422 0 37.8613 0c40.5146 0.0419922 80.4863 1.58594 119.841 5.51562
c59.6797 5.95801 100.144 15.7266 101.152 56.5771c0.362305 14.6025 -0.606445 29.2373 -2.7832 43.9023c-2.99707 14.6553 -7.18457 29.2812 -12.6924 43.874c-15.4141 40.8496 -60.7432 58.6689 -122.524 64.627c-40.7402 3.93066 -81.2568 5.47363 -121.785 5.51562
c-12.6201 0.00292969 -25.2178 -0.121094 -37.8613 0c-40.5176 0 -80.3428 -2.04004 -119.84 -5.51562c-68.8652 -6.05859 -84.3438 -42.7891 -81.1406 -60.4141l8.95508 -49.0107h-224.922l-14.3828 81.5703c-0.201172 6.17285 -0.426758 12.3467 -0.438477 18.5146
c-0.185547 85.2207 65.8086 143.263 173.354 155.693c70.9131 8.19727 143.076 11.4229 216.279 11.4951h0.00195312c22.8525 -0.260742 45.6084 0 68.4131 0c73.2354 -0.101562 146.525 -3.2998 220.33 -11.4971c111.93 -12.4307 198.39 -70.4707 228.258 -155.691
c10.7432 -30.6514 19.0781 -61.375 25.2207 -92.1582h0.306641c0.410156 -2.32812 0.703125 -4.65234 1.0752 -6.97949c0.453125 -2.35254 0.984375 -4.70312 1.39941 -7.05664h-0.30957c4.71387 -30.7842 7.21387 -61.5078 7.2793 -92.1592
c0.18457 -85.2197 -68.9873 -125.21 -176.533 -137.641c-70.9141 -8.19629 -143.08 -11.3945 -216.279 -11.4971c-17.4873 0 -34.9893 0.0908203 -52.4678 0.0458984l0.0078125 -0.0458984l-170.826 -0.0488281c-21.2803 0.0830078 -41.7783 4.21484 -54.7002 11.0264
l1.94629 -11.0342h-0.00195312l3.14062 -17.8135l11.8457 -64.1348h703.903l30.2715 -171.679h-912.325z" />
</svg>
