<?xml version="1.0" standalone="no"?>
<!DOCTYPE svg PUBLIC "-//W3C//DTD SVG 1.1//EN" "http://www.w3.org/Graphics/SVG/1.1/DTD/svg11.dtd" >
<svg xmlns="http://www.w3.org/2000/svg" xmlns:xlink="http://www.w3.org/1999/xlink" version="1.1" viewBox="-10 0 1272 1000">
   <path fill="currentColor"
d="M534.735 260c-85.6211 0.0722656 -172.871 33.3555 -239.202 91.293l16.0977 -91.293h-186.414l-94.7773 540.343h186.414l43.6826 -250.57c12.3477 -69.5791 79.1982 -125.574 149.958 -125.574h53.5342c70.8105 0 117.93 56.0742 105.648 125.723
c0 0 -13.1797 77.5791 -43.6562 250.422h186.411l30.123 -173.67l24.1797 -137.133c28.8164 -33.2314 71.3848 -54.9912 115.484 -54.9912h53.5352c70.8105 0 117.93 56.0742 105.648 125.722l-42.3311 240.072h186.409l28.7979 -163.32l36.0654 -204.535
c14.0879 -79.8984 -78.0566 -138.055 -158.027 -160.966c-26.5518 -7.62305 -54.8701 -11.5049 -84.0312 -11.5215c-85.6211 0.0722656 -174.695 43.7041 -241.027 101.642l-0.0605469 0.344727c-26.7246 -44.7041 -91.0713 -74.0312 -148.432 -90.4639
c-26.5508 -7.62207 -54.8682 -11.5049 -84.0312 -11.5205z" />
</svg>
