<?xml version="1.0" standalone="no"?>
<!DOCTYPE svg PUBLIC "-//W3C//DTD SVG 1.1//EN" "http://www.w3.org/Graphics/SVG/1.1/DTD/svg11.dtd" >
<svg xmlns="http://www.w3.org/2000/svg" xmlns:xlink="http://www.w3.org/1999/xlink" version="1.1" viewBox="-10 0 1060 1000">
   <path fill="currentColor"
d="M528.902 801.241v-0.000976562c71.8604 0 143.86 -3.47559 216.401 -12.1084c110.016 -13.0918 206.545 -73.6074 226.003 -163.973c5.05176 -23.459 52.8193 -309.001 58.4873 -333.284h-0.102539c0.602539 -2.77441 1.28906 -5.54492 1.85059 -8.31934
l2.29492 -13.0195c4.29688 -28.5518 6.30762 -57.0439 5.80957 -85.4717c-1.38574 -79.0381 -70.583 -132.873 -181.834 -144.401c-73.3584 -7.60254 -147.914 -10.5684 -223.481 -10.6631h-10.3428h-5.43066h-10.3438c-75.6006 0.0947266 -151.201 3.06055 -227.24 10.6631
c-115.318 11.5283 -203.502 65.3633 -232.76 144.401c-10.5244 28.4277 -18.5586 56.9199 -24.332 85.4717h-0.313477c-0.379883 2.1582 -0.639648 4.31543 -0.982422 6.47363c-0.421875 2.18164 -0.927734 4.3623 -1.3125 6.5459h0.317383
c-4.2959 28.5498 -6.30762 57.043 -5.80859 85.4717c1.38477 79.0381 73.5381 116.129 184.79 127.657c73.3584 7.60254 147.913 10.5693 223.479 10.6631c4.29102 0 8.58398 -0.00390625 12.873 0h13.2354l0.00195312 -0.00195312l-0.000976562 -0.00195312
c58.6084 -0.0712891 117.225 -1.94727 176.038 -6.29395c23.0654 -2.76758 53.7959 -9.6875 63.9414 -14.6826l-0.552734 3.13574c-7.48828 40.8545 -13.9297 75.7119 -14.5498 77.415c-15.6465 43.0234 -54.3682 72.3232 -115.08 78.5986
c-40.0361 4.13867 -79.8213 5.76367 -119.602 5.80762c-12.3867 0.00292969 -24.7559 -0.128906 -37.1641 0c-39.7715 0 -78.9795 -1.66895 -117.557 -5.80762c-34.2832 -3.67871 -100.028 -14.9414 -97.5547 -28.4561l8.60547 -47.0254h-225.931l-7.17871 40.7148
h-0.207031l-2.10059 13.0879l-1.99023 11.2861c0.00488281 1.06836 0.0146484 2.13672 0.0195312 3.2041c-12.5205 104.787 53.4678 134.509 190.335 150.791c69.6074 8.28125 140.284 12.0322 212.132 12.1074c22.4326 -0.271484 44.7617 0 67.1455 0zM560.381 375.322
c-40.8965 -0.0947266 -81.2891 -1.52441 -121.106 -5.08984c-61.7197 -5.52637 -103.672 -14.5869 -105.468 -52.4736c-0.644531 -13.5439 0.0878906 -27.1191 2.06348 -40.7197c2.82324 -13.5918 6.87402 -27.1562 12.2891 -40.6904
c15.1562 -37.8867 63.2578 -63.6885 126.926 -69.2148c41.0771 -3.56543 81.9766 -4.99121 122.91 -5.08887c40.8926 0.0986328 81.2842 1.52344 121.101 5.08887c61.7197 5.52637 100.722 31.3281 102.518 69.2148c0.643555 13.5342 -0.0908203 27.0986 -2.05957 40.6904
c-2.82031 13.6006 -6.87793 27.1758 -12.2969 40.7197c-15.1572 37.8867 -60.3066 46.9473 -123.976 52.4736c-41.0732 3.56543 -81.9707 4.99316 -122.9 5.08984z" />
</svg>
