<?xml version="1.0" standalone="no"?>
<!DOCTYPE svg PUBLIC "-//W3C//DTD SVG 1.1//EN" "http://www.w3.org/Graphics/SVG/1.1/DTD/svg11.dtd" >
<svg xmlns="http://www.w3.org/2000/svg" xmlns:xlink="http://www.w3.org/1999/xlink" version="1.1" viewBox="-10 0 854 1000">
   <path fill="currentColor"
d="M469.904 260c-58.9297 0.101562 -118.004 3.26172 -177.651 11.3623c-90.4609 12.2842 -161.905 69.6436 -188.7 153.862c-22.1494 69.625 -34.6592 139.591 -37.0137 209.915c-2.81641 84.209 48.3115 141.578 134.44 153.862
c65.6221 9.36035 132.811 12.1396 201.203 11.1523c68.0449 0.984375 136.21 -1.79199 205.135 -11.1523c90.4609 -12.2842 161.82 -69.6533 188.7 -153.862c22.4443 -70.3242 34.6084 -140.29 37.0137 -209.915c2.90625 -84.2188 -48.3115 -141.578 -134.44 -153.862
c-56.791 -8.10059 -114.743 -11.291 -173.642 -11.3623c-18.3945 0.25293 -36.6963 0 -55.0449 0zM457.389 400.662c10.1553 -0.00292969 20.291 0.121094 30.4658 0c32.6025 0 64.71 1.56641 96.2451 5.4502c47.8262 5.8877 76.9199 33.3799 76.4121 73.75
c-0.417969 33.375 -6.2373 66.9141 -17.7432 100.624c-13.7754 40.3652 -52.5186 67.8662 -102.421 73.7549c-38.0234 4.4873 -75.709 5.81934 -113.379 5.3457c-37.8389 0.476562 -75.0566 -0.862305 -111.496 -5.3457
c-47.8281 -5.88867 -76.8721 -33.3896 -76.4102 -73.7549c0.382812 -33.71 6.39258 -67.249 17.7432 -100.624c13.7256 -40.3701 52.5146 -67.8623 102.419 -73.75c32.9043 -3.88379 65.5557 -5.41016 98.1641 -5.4502z" />
</svg>
