<?xml version="1.0" standalone="no"?>
<!DOCTYPE svg PUBLIC "-//W3C//DTD SVG 1.1//EN" "http://www.w3.org/Graphics/SVG/1.1/DTD/svg11.dtd" >
<svg xmlns="http://www.w3.org/2000/svg" xmlns:xlink="http://www.w3.org/1999/xlink" version="1.1" viewBox="-10 0 1172 1000">
   <path fill="currentColor"
d="M646.352 30c-82.1631 0.143555 -164.55 4.65527 -247.76 16.2168c-126.195 17.5352 -226.142 99.4033 -263.989 219.609c-31.2852 99.376 -49.1367 199.239 -52.8301 299.613c-4.41797 120.191 66.5322 202.075 186.544 219.609
c91.4443 13.3594 185.103 17.3262 280.464 15.917c94.8652 1.4043 189.924 -2.55762 286.078 -15.917c126.196 -17.5342 226.023 -99.418 263.988 -219.609c31.7051 -100.374 49.0742 -200.237 52.8301 -299.613c4.54688 -120.206 -66.5303 -202.074 -186.543 -219.609
c-79.1338 -11.5615 -159.922 -16.1152 -242.041 -16.2168c-25.6436 0.363281 -51.1582 0 -76.7412 0zM628.081 230.768c14.1621 -0.00390625 28.2891 0.173828 42.4795 0c45.4541 0 90.2109 2.23633 134.155 7.78027c66.6475 8.40332 107.054 47.6426 106.11 105.264
c-0.78125 47.6367 -9.08887 95.5068 -25.3242 143.621c-19.4434 57.6143 -73.6221 96.8662 -143.233 105.271c-53.0391 6.40332 -105.591 8.30469 -158.111 7.62891c-52.7588 0.680664 -104.641 -1.23047 -155.422 -7.62891
c-66.6465 -8.40527 -106.983 -47.6572 -106.104 -105.271c0.733398 -48.1143 9.30762 -95.9844 25.3242 -143.621c19.373 -57.6211 73.6172 -96.8604 143.228 -105.264c45.8984 -5.54395 91.4346 -7.72266 136.898 -7.78027z" />
</svg>
