<?xml version="1.0" standalone="no"?>
<!DOCTYPE svg PUBLIC "-//W3C//DTD SVG 1.1//EN" "http://www.w3.org/Graphics/SVG/1.1/DTD/svg11.dtd" >
<svg xmlns="http://www.w3.org/2000/svg" xmlns:xlink="http://www.w3.org/1999/xlink" version="1.1" viewBox="-10 0 853 1000">
   <path fill="currentColor"
d="M567.717 50l-148.381 150.744l27.502 35.3223l164.52 -120.084zM469.695 261.184c-58.9277 0.101562 -118.005 3.26074 -177.65 11.3613c-90.4619 12.2852 -161.905 69.6445 -188.701 153.863c-22.1494 69.624 -34.6592 139.592 -37.0137 209.916
c-2.81543 84.208 48.3115 141.576 134.44 153.861c65.6221 9.36035 132.811 12.1396 201.203 11.1523c68.0449 0.983398 136.211 -1.79199 205.136 -11.1523c90.4609 -12.2852 161.819 -69.6533 188.698 -153.861c22.4443 -70.3242 34.6084 -140.292 37.0137 -209.916
c2.90723 -84.2188 -48.3096 -141.578 -134.438 -153.863c-56.792 -8.10059 -114.745 -11.291 -173.643 -11.3613c-18.3945 0.25293 -36.6963 0 -55.0459 0zM457.181 401.846c10.1553 -0.00292969 20.29 0.121094 30.4648 0c32.6025 0 64.7119 1.56543 96.2461 5.44922
c47.8262 5.8877 76.9189 33.3809 76.4111 73.752c-0.417969 33.375 -6.2373 66.9131 -17.7432 100.623c-13.7754 40.3652 -52.5166 67.8652 -102.419 73.7539c-38.0254 4.48633 -75.71 5.81934 -113.381 5.3457c-37.8398 0.476562 -75.0566 -0.862305 -111.494 -5.3457
c-47.8291 -5.88867 -76.874 -33.3887 -76.4121 -73.7539c0.382812 -33.71 6.39258 -67.248 17.7432 -100.623c13.7256 -40.3711 52.5146 -67.8643 102.42 -73.752c32.9043 -3.88379 65.5557 -5.40918 98.1641 -5.44922z" />
</svg>
