<?xml version="1.0" standalone="no"?>
<!DOCTYPE svg PUBLIC "-//W3C//DTD SVG 1.1//EN" "http://www.w3.org/Graphics/SVG/1.1/DTD/svg11.dtd" >
<svg xmlns="http://www.w3.org/2000/svg" xmlns:xlink="http://www.w3.org/1999/xlink" version="1.1" viewBox="-10 0 1473 1000">
   <path fill="currentColor"
d="M261.837 29c-53.1191 0 -104.242 47.374 -114.619 106.225l-39.7109 225.214c-10.377 58.8506 24.0391 106.225 77.1582 106.225h342.991c53.1182 0 104.236 -47.374 114.613 -106.225l39.7109 -225.214c10.377 -58.8506 -24.0342 -106.225 -77.1523 -106.225h-342.991z
M1082.11 33.3037l-740.133 766.722h114.517l740.11 -766.722h-114.494zM325.26 133.424h179.318c27.7705 0 45.7598 24.7734 40.335 55.541l-20.7607 117.739c-5.4248 30.7676 -32.1494 55.5303 -59.9199 55.5303h-179.318c-27.7705 0 -45.7588 -24.7627 -40.334 -55.5303
l20.7607 -117.739c5.4248 -30.7676 32.1484 -55.541 59.9189 -55.541zM1030.91 362.362c-53.1191 0 -104.242 47.3809 -114.618 106.23l-39.7109 225.208c-10.377 58.8506 24.0381 106.225 77.1572 106.225h342.991c53.1191 0 104.236 -47.374 114.613 -106.225
l39.7109 -225.208c10.376 -58.8496 -24.0332 -106.23 -77.1523 -106.23h-342.991zM1094.33 466.791h179.318c27.7705 0 45.7598 24.7695 40.335 55.5371l-20.7607 117.738c-5.4248 30.7676 -32.1494 55.5352 -59.9199 55.5352h-179.318
c-27.7695 0 -45.7598 -24.7676 -40.335 -55.5352l20.7607 -117.738c5.4248 -30.7676 32.1504 -55.5371 59.9199 -55.5371z" />
</svg>
