<?xml version="1.0" standalone="no"?>
<!DOCTYPE svg PUBLIC "-//W3C//DTD SVG 1.1//EN" "http://www.w3.org/Graphics/SVG/1.1/DTD/svg11.dtd" >
<svg xmlns="http://www.w3.org/2000/svg" xmlns:xlink="http://www.w3.org/1999/xlink" version="1.1" viewBox="-10 0 896 1000">
   <path fill="currentColor"
d="M740.196 1030.72l135.194 -766.721h-197.814l-9.38184 53.2051c-32.7588 -33.1641 -79.4609 -53.2051 -134.582 -53.2051h-188.308c-122.319 0 -238.157 98.4746 -259.725 220.792l-16.7168 94.8008c-21.5674 122.318 59.543 220.791 181.862 220.791h188.308
c55.1211 0 108.891 -20.041 153.345 -53.2051l-49.9961 283.542h197.814zM515.167 647.36h-168.162c-52.5283 0 -87.3574 -42.2842 -78.0957 -94.8105l7.17969 -40.7148c9.26172 -52.5264 59.0029 -94.8115 111.531 -94.8115h168.162
c52.5264 0 87.3555 42.2852 78.0938 94.8115l-7.17969 40.7148c-9.26172 52.5264 -59.0029 94.8105 -111.529 94.8105z" />
</svg>
