<?xml version="1.0" standalone="no"?>
<!DOCTYPE svg PUBLIC "-//W3C//DTD SVG 1.1//EN" "http://www.w3.org/Graphics/SVG/1.1/DTD/svg11.dtd" >
<svg xmlns="http://www.w3.org/2000/svg" xmlns:xlink="http://www.w3.org/1999/xlink" version="1.1" viewBox="-10 0 827 1000">
   <path fill="currentColor"
d="M291.771 264c-92.6582 0 -179.814 71.2344 -195.417 159.72c-15.6025 88.4863 46.4326 159.721 139.091 159.721h329.596c19.7559 4.54883 31.9219 22.043 28.209 43.0986l-0.663086 3.76172c-4.32617 24.5352 -28.4932 44.2891 -54.1885 44.2891h-260.895
c-25.6914 0 -42.8936 -19.7539 -38.5674 -44.2891l0.663086 -3.76172c0.625 -3.54297 1.70312 -6.96875 3.09766 -10.2666h-178.467c-2.55859 7.74219 -4.59668 15.6641 -6.01953 23.7334c-15.6016 88.4854 46.4355 159.72 139.096 159.72h373.559
c92.6582 0 179.812 -71.2344 195.414 -159.72c15.6025 -88.4844 -46.4307 -159.719 -139.089 -159.719h-329.596c-19.7559 -4.55176 -31.9219 -22.043 -28.209 -43.1006l0.663086 -3.76172c4.32617 -24.5352 28.4932 -44.2881 54.1865 -44.2881h260.895
c25.6953 0 42.8955 19.7529 38.5693 44.2881l-0.663086 3.76172c-0.625 3.54395 -1.70508 6.96875 -3.09766 10.2666h178.463c2.56055 -7.74219 4.59863 -15.6641 6.02148 -23.7334c15.6025 -88.4854 -46.4346 -159.72 -139.093 -159.72h-373.559z" />
</svg>
