<?xml version="1.0" standalone="no"?>
<!DOCTYPE svg PUBLIC "-//W3C//DTD SVG 1.1//EN" "http://www.w3.org/Graphics/SVG/1.1/DTD/svg11.dtd" >
<svg xmlns="http://www.w3.org/2000/svg" xmlns:xlink="http://www.w3.org/1999/xlink" version="1.1" viewBox="-10 0 1125 1000">
   <path fill="currentColor"
d="M395.776 33.2773c-127.742 0 -248.559 101.95 -270.889 228.588c-22.3301 126.64 62.5332 228.59 190.275 228.59h454.393c27.1963 6.50977 43.8066 31.5459 38.4932 61.6807l-0.949219 5.38477c-6.19141 35.1143 -39.6943 63.3838 -75.1162 63.3838h-359.68
c-35.4219 0 -58.9521 -28.2695 -52.7607 -63.3838l0.949219 -5.38477c0.893555 -5.06836 2.41699 -9.97266 4.37402 -14.6914h-246.039c-3.60645 11.0801 -6.48438 22.416 -8.52051 33.9668c-22.3301 126.639 62.5391 228.589 190.283 228.589h515
c127.742 0 248.559 -101.95 270.889 -228.589c22.3291 -126.639 -62.5342 -228.589 -190.276 -228.589h-454.393c-27.1953 -6.51074 -43.8047 -31.5459 -38.4902 -61.6816l0.949219 -5.38379c6.19141 -35.1152 39.6914 -63.3848 75.1133 -63.3848h359.68
c35.4219 0 58.9531 28.2695 52.7617 63.3848l-0.949219 5.38379c-0.893555 5.06836 -2.41699 9.97266 -4.37402 14.6924h246.039c3.60645 -11.0811 6.4834 -22.417 8.52051 -33.9678c22.3301 -126.638 -62.5391 -228.588 -190.281 -228.588h-515.002z" />
</svg>
