<?xml version="1.0" standalone="no"?>
<!DOCTYPE svg PUBLIC "-//W3C//DTD SVG 1.1//EN" "http://www.w3.org/Graphics/SVG/1.1/DTD/svg11.dtd" >
<svg xmlns="http://www.w3.org/2000/svg" xmlns:xlink="http://www.w3.org/1999/xlink" version="1.1" viewBox="-10 0 1125 1000">
   <path fill="currentColor"
d="M725.561 -188l-149.203 155.406l27.3096 36.416l165.175 -123.799zM396.106 31.416c-127.742 0 -248.562 101.952 -270.891 228.59c-22.3301 126.638 62.5361 228.586 190.278 228.586h454.391c27.1953 6.51074 43.8057 31.5479 38.4922 61.6836l-0.949219 5.38477
c-6.19141 35.1143 -39.6943 63.3828 -75.1162 63.3828h-359.68c-35.4209 0 -58.9521 -28.2686 -52.7607 -63.3828l0.949219 -5.38477c0.893555 -5.06934 2.41699 -9.97363 4.37598 -14.6934h-246.043c-3.60547 11.0811 -6.48242 22.418 -8.51855 33.9668
c-22.3301 126.639 62.54 228.588 190.283 228.588h515c127.742 0 248.561 -101.949 270.891 -228.588c22.3291 -126.637 -62.5352 -228.588 -190.277 -228.588h-454.393c-27.1963 -6.51172 -43.8057 -31.5459 -38.4912 -61.6816l0.949219 -5.38477
c6.19141 -35.1143 39.6914 -63.3848 75.1143 -63.3848h359.68c35.4209 0 58.9541 28.2705 52.7627 63.3848l-0.949219 5.38477c-0.894531 5.06934 -2.41797 9.97266 -4.37598 14.6914h246.039c3.60547 -11.0811 6.48535 -22.415 8.52246 -33.9648
c22.3291 -126.638 -62.54 -228.59 -190.283 -228.59h-515z" />
</svg>
