<?xml version="1.0" standalone="no"?>
<!DOCTYPE svg PUBLIC "-//W3C//DTD SVG 1.1//EN" "http://www.w3.org/Graphics/SVG/1.1/DTD/svg11.dtd" >
<svg xmlns="http://www.w3.org/2000/svg" xmlns:xlink="http://www.w3.org/1999/xlink" version="1.1" viewBox="-10 0 1066 1000">
   <path fill="currentColor"
d="M587.184 33c-73.2295 0.0722656 -146.527 3.28906 -220.328 11.46c-111.923 12.3916 -198.353 70.248 -228.173 155.195c-2.15918 6.14746 -4.10645 12.3027 -6.08008 18.4551l-14.3369 81.3105h224.924l8.29492 -48.8232
c3.00391 -17.5684 31.415 -54.1816 102.414 -60.2207c40.7207 -3.46387 81.2627 -5.49707 121.781 -5.49707c12.6025 0.121094 25.2441 -0.00292969 37.8623 0c40.5156 0.0410156 80.4873 1.5791 119.845 5.49707c59.6836 5.93945 96.9814 33.6699 98.0127 74.3896
c0.371094 14.5459 1.16992 19.124 -0.992188 33.7324c-2.9873 14.6182 -7.16992 29.207 -12.6738 43.7627c-15.3916 40.7207 -59.2959 50.458 -121.074 56.3975c-40.7383 3.91699 -81.2539 5.45703 -121.783 5.49707c-12.6191 0 -25.2168 -0.125 -37.8623 0
c-80.6865 -1.16797 -161.331 -2.5625 -242.024 -3.69141v0c-177.644 0 -198.893 61.0723 -224.248 204.854l-19.2168 108.975h0.00195312l-14.9199 84.6162h912.329l30.1973 -171.258h-703.907l10.7129 -63.8027c1.50488 -9.15332 12.3281 -17.7559 26.752 -17.7559
h0.00195312l199.979 -0.0566406l0.00878906 -0.0449219c17.4941 -0.0458984 34.9639 0.0449219 52.4521 0.0449219c73.2363 -0.101562 146.526 -3.28906 220.328 -11.46c111.923 -12.3906 195.178 -52.2539 224.998 -137.202
c10.7256 -30.5537 19.043 -61.1777 25.167 -91.8633h0.310547c0.414062 -2.34668 0.698242 -4.68945 1.08594 -7.03516c0.446289 -2.31934 0.972656 -4.63672 1.38184 -6.95605h-0.306641c4.69531 -30.6865 7.17969 -61.3096 7.22852 -91.8643
c0.136719 -84.9473 -65.8887 -142.804 -173.442 -155.194c-70.918 -8.1709 -143.085 -11.3584 -216.284 -11.4609c-22.8057 0 -45.6523 0.257812 -68.4131 0h-0.00292969z" />
</svg>
