<?xml version="1.0" standalone="no"?>
<!DOCTYPE svg PUBLIC "-//W3C//DTD SVG 1.1//EN" "http://www.w3.org/Graphics/SVG/1.1/DTD/svg11.dtd" >
<svg xmlns="http://www.w3.org/2000/svg" xmlns:xlink="http://www.w3.org/1999/xlink" version="1.1" viewBox="-10 0 1144 1000">
   <path fill="currentColor"
d="M275.697 35c-61.1553 0 -119.573 49.7207 -130.373 110.963l-4.86914 27.6143l-89.9824 510.319c-11.416 64.7432 31.8037 117.307 96.4541 117.307c-0.000976562 -0.000976562 21.2402 0 21.2402 0h626.73l24.4346 -138.577h-601.922
c-13.2598 -3.00195 -21.5068 -15.7539 -19.2236 -31.2871h-0.0683594l75.0811 -425.804h0.0683594c3.65723 -17.7871 19.8359 -31.9277 36.5625 -31.958c0.605469 0.00292969 1.20508 0.0380859 1.80566 0.0644531l0.0107422 -0.0644531h633.1l-0.0107422 0.0644531
c0.611328 -0.0419922 1.21973 -0.0605469 1.82715 -0.0644531c16.7148 0.0380859 27.9082 14.1709 25.293 31.958h0.0683594l-46.5732 264.131h-0.0644531c-0.0664062 0.606445 -0.15332 1.21289 -0.256836 1.81934c-2.99023 16.7461 -19.5205 30.4502 -37.373 30.9727
l-0.0117188 0.0673828h-41.9932l23.8887 -135.482c15.9141 -90.251 -45.6885 -163.415 -137.593 -163.415h-230.016c-82.3975 0.166992 -164.85 59.4629 -191.042 139.475h159.938c20.4102 -25.6572 47.1738 -40.2334 70.2842 -40.3369h116.678
c41.8008 0 68.2021 46.5625 64.1631 107.627c-13.5391 -20.249 -38.3516 -33.6045 -71.4697 -37.5869c-34.167 -4.1084 -68.9531 -5.72656 -104.252 -5.7627c-11.0195 0.128906 -21.9912 0 -32.9883 0c-35.3135 0.0527344 -70.6641 1.6543 -106.279 5.7627
c-54.0146 6.23047 -95.9043 35.3232 -110.595 78.0391c-12.1426 35.3125 -18.5049 70.8008 -18.7734 106.469c-0.319336 42.71 31.2568 71.8076 83.0742 78.0391c39.4785 4.74805 79.7881 6.15723 120.76 5.65625c40.7969 0.499023 81.6035 -0.908203 122.76 -5.65625
c35.4219 -4.08594 65.541 -18.0566 86.2812 -39.2021l-7.91016 44.8584h38.7695l-0.0166016 0.0947266h205.431c58.9199 0 115.203 -47.9033 125.606 -106.907c-0.000976562 0 5.52441 -31.332 5.52441 -31.332l58.4316 -331.378l5.34375 -30.3086
c10.333 -58.6006 -28.7861 -106.177 -87.3018 -106.178h-758.65zM486.585 455.087h0.00195312h221.984c-3.29004 23.8145 -13.0059 74.6338 -13.0059 74.6338c-10.1572 25.0068 -34.5312 29.6709 -69.4014 32.207c-26.5684 1.93066 -53.0518 2.50391 -79.6133 2.30176
c-26.6309 0.204102 -52.9189 -0.370117 -78.8047 -2.30176c-33.9746 -2.53613 -55.7646 -14.3779 -57.3906 -31.7588c-1.35645 -14.5146 1.25684 -28.9551 7.63965 -43.3252c7.72168 -17.3828 33.7207 -29.2207 68.5898 -31.7568z" />
</svg>
