<?xml version="1.0" standalone="no"?>
<!DOCTYPE svg PUBLIC "-//W3C//DTD SVG 1.1//EN" "http://www.w3.org/Graphics/SVG/1.1/DTD/svg11.dtd" >
<svg xmlns="http://www.w3.org/2000/svg" xmlns:xlink="http://www.w3.org/1999/xlink" version="1.1" viewBox="-10 0 861 1000">
   <path fill="currentColor"
d="M165.419 32l-135.193 766.721h197.812l9.38086 -53.2041c32.7607 33.1631 79.4619 53.2041 134.582 53.2041h188.307c122.318 0 238.156 -98.4736 259.725 -220.791l16.7158 -94.8008c21.5684 -122.318 -59.543 -220.792 -181.861 -220.792h-188.307
c-55.1201 0 -108.89 20.041 -153.345 53.2051l49.9961 -283.542h-197.812zM390.447 415.36h168.161c52.5264 0 87.3555 42.2852 78.0938 94.8115l-7.17871 40.7139c-9.26172 52.5273 -59.0029 94.8125 -111.529 94.8125h-168.161
c-52.5264 0 -87.3564 -42.2852 -78.0947 -94.8125l7.17871 -40.7139c9.26172 -52.5264 59.0039 -94.8115 111.53 -94.8115z" />
</svg>
