<?xml version="1.0" standalone="no"?>
<!DOCTYPE svg PUBLIC "-//W3C//DTD SVG 1.1//EN" "http://www.w3.org/Graphics/SVG/1.1/DTD/svg11.dtd" >
<svg xmlns="http://www.w3.org/2000/svg" xmlns:xlink="http://www.w3.org/1999/xlink" version="1.1" viewBox="-10 0 496 1000">
   <path fill="currentColor"
d="M334.396 29.001l-91.4287 -0.000976562h-77.0186l-25.168 142.735h15.874c33.7676 0 57.751 19.2363 51.085 57.0469l-4.97852 28.2363l-3.97461 22.542l-5.08496 28.8379l-4.23633 24.0273s-1.87891 10.3799 -1.83691 10.415
c-5.93066 33.6367 7.27344 62.4629 31.1738 74.6045c-28.1826 12.1416 -51.5518 40.9678 -57.4834 74.6055l-0.811523 4.60449l-1.02539 5.81055l-3.21191 18.2168l-5.08496 28.8379l-3.97461 22.543l-4.97852 28.2363c-6.66895 37.8115 -37.4365 57.0459 -71.2041 57.0459
h-15.874l-25.168 142.735h77.0186h91.4287c50.4951 -0.000976562 99.5088 -45.8369 109.477 -102.378l22.1533 -125.64s2.36719 -13.1387 2.2998 -13.041c2.94922 -16.2188 10.1836 -31.4443 20.1484 -44.2227c18.127 -23.5195 45.6455 -39.1172 73.9404 -39.2246
c10.4043 0.0869141 20.0156 2.32617 28.4199 6.25488l10.2656 -58.2178s10.1963 -58.1807 10.2656 -58.2168c-9.79102 3.92871 -20.1914 6.16797 -30.627 6.25586c-28.2559 -0.107422 -50.2744 -15.7061 -60.1064 -39.2256
c-5.45898 -12.7783 -7.32422 -28.0039 -4.55469 -44.2227l1.52441 -8.64258l3.97461 -22.541l22.1533 -125.641c9.97168 -56.54 -22.877 -102.377 -73.3711 -102.378z" />
</svg>
