<?xml version="1.0" standalone="no"?>
<!DOCTYPE svg PUBLIC "-//W3C//DTD SVG 1.1//EN" "http://www.w3.org/Graphics/SVG/1.1/DTD/svg11.dtd" >
<svg xmlns="http://www.w3.org/2000/svg" xmlns:xlink="http://www.w3.org/1999/xlink" version="1.1" viewBox="-10 0 1172 1000">
   <path fill="currentColor"
d="M646.349 30c-82.1621 0.143555 -164.544 4.65527 -247.757 16.2168c-126.196 17.5342 -226.143 99.4033 -263.988 219.609c-31.2881 99.375 -49.1377 199.239 -52.8301 299.613c-4.4209 120.191 66.5303 202.075 186.543 219.609
c91.4424 13.3604 185.101 17.3271 280.462 15.918c94.8662 1.4043 189.924 -2.55762 286.078 -15.918c126.196 -17.5342 226.024 -99.418 263.989 -219.609c8.02832 -25.416 15.1201 -50.7998 21.3213 -76.1504h-235.376c-19.9795 56.583 -73.6768 95.1006 -142.525 103.414
c-53.0361 6.40332 -105.591 8.30664 -158.11 7.63086c-52.7588 0.680664 -104.64 -1.23145 -155.421 -7.63086c-66.6465 -8.40527 -106.984 -47.6562 -106.104 -105.27c0.731445 -48.1143 9.30469 -95.9844 25.3242 -143.621
c19.3711 -57.6211 73.6162 -96.8623 143.227 -105.266c45.9033 -5.54395 91.4336 -7.72168 136.901 -7.7793c14.1572 -0.00390625 28.2842 0.173828 42.4756 0c45.4531 0 90.2109 2.23535 134.154 7.7793c43.9756 5.54492 76.4199 24.5801 93.207 53.3945h252.321
c0.539062 -8.70703 1.10742 -17.415 1.43457 -26.1152c4.5459 -120.206 -66.5312 -202.075 -186.544 -219.609c-79.1328 -11.5615 -159.92 -16.1152 -242.037 -16.2168c-25.6484 0.363281 -51.1621 0 -76.7461 0z" />
</svg>
