<?xml version="1.0" standalone="no"?>
<!DOCTYPE svg PUBLIC "-//W3C//DTD SVG 1.1//EN" "http://www.w3.org/Graphics/SVG/1.1/DTD/svg11.dtd" >
<svg xmlns="http://www.w3.org/2000/svg" xmlns:xlink="http://www.w3.org/1999/xlink" version="1.1" viewBox="-10 0 937 1000">
   <path fill="currentColor"
d="M916.118 33h-197.812l-49.9961 283.542c-32.7607 -33.1641 -79.4619 -53.2051 -134.582 -53.2051h-188.307c-122.318 0 -238.156 98.4727 -259.725 220.791l-16.7158 94.8018c-21.5674 122.317 59.543 220.791 181.861 220.791h188.307
c55.1201 0 108.889 -20.041 153.345 -53.2051l-9.38184 53.2051h197.812zM555.896 416.36c52.5264 0 87.3564 42.2842 78.0947 94.8105l-7.17969 40.7148c-9.26172 52.5273 -59.0039 94.8115 -111.53 94.8115h-168.161c-52.5264 0 -87.3555 -42.2842 -78.0938 -94.8115
l7.17969 -40.7148c9.26172 -52.5264 59.0029 -94.8105 111.529 -94.8105h168.161z" />
</svg>
