<?xml version="1.0" standalone="no"?>
<!DOCTYPE svg PUBLIC "-//W3C//DTD SVG 1.1//EN" "http://www.w3.org/Graphics/SVG/1.1/DTD/svg11.dtd" >
<svg xmlns="http://www.w3.org/2000/svg" xmlns:xlink="http://www.w3.org/1999/xlink" version="1.1" viewBox="-10 0 1115 1000">
   <path fill="currentColor"
d="M612.288 0l-15.9844 90.6523h-210.643c-127.743 0 -248.718 102.84 -271.242 230.583s62.1826 230.583 189.926 230.583h210.643l-23.2021 131.59h-130.501c-35.4209 0 -58.9111 -28.5166 -52.666 -63.9385l0.958008 -5.43066
c0.901367 -5.11328 2.43262 -10.0605 4.39844 -14.8213h-246.04c-3.62207 11.1777 -6.51855 22.6133 -8.57324 34.2646c-22.5244 127.742 62.1875 230.582 189.932 230.582h210.638l-15.5732 88.3164h93.7246l15.5732 -88.3164h210.638
c127.743 0 248.718 -102.84 271.242 -230.582c22.5254 -127.744 -62.1836 -230.584 -189.927 -230.584h-210.638l23.2031 -131.589h130.497c35.4209 0 58.9092 28.5156 52.6631 63.9375l-0.957031 5.43066c-0.902344 5.11328 -2.43164 10.0605 -4.39746 14.8213h246.041
c3.62207 -11.1768 6.51855 -22.6133 8.57227 -34.2637c22.5244 -127.743 -62.1885 -230.583 -189.932 -230.583h-210.633l15.9844 -90.6523h-93.7246zM428.99 271.31h135.459l-23.2031 131.589h-150.028c-27.1855 -6.56738 -43.7568 -31.8223 -38.3965 -62.2207
l0.957031 -5.43066c6.24609 -35.4219 39.791 -63.9375 75.2119 -63.9375zM608.712 551.818h150.023c27.1865 6.56836 43.7578 31.8223 38.3975 62.2207l-0.958008 5.43066c-6.24512 35.4219 -39.7891 63.9385 -75.2109 63.9385h-135.454z" />
</svg>
