<?xml version="1.0" standalone="no"?>
<!DOCTYPE svg PUBLIC "-//W3C//DTD SVG 1.1//EN" "http://www.w3.org/Graphics/SVG/1.1/DTD/svg11.dtd" >
<svg xmlns="http://www.w3.org/2000/svg" xmlns:xlink="http://www.w3.org/1999/xlink" version="1.1" viewBox="-10 0 846 1000">
   <path fill="currentColor"
d="M466.469 260c-58.3418 0.102539 -116.832 3.26074 -175.899 11.3613c-89.5811 12.2852 -160.415 69.6445 -187.091 153.863c-22.0518 69.624 -34.5596 139.592 -37.0137 209.916c-2.93652 84.208 47.582 141.576 132.831 153.861
c64.9521 9.36035 131.466 12.1387 199.178 11.1523c67.3652 0.983398 134.855 -1.79199 203.11 -11.1523c89.5801 -12.2852 158.919 -61.6533 185.678 -145.861c1.0293 -3.2373 1.92578 -6.46973 2.91113 -9.70508h-185.678
c-18.3789 15.3799 -41.2373 17.501 -68.9775 20.8066c-37.6533 4.48633 -74.9629 5.81738 -112.258 5.34375c-37.4619 0.476562 -74.3096 -0.860352 -110.376 -5.34375c-38.2979 -4.76367 -62.6201 -33.6816 -70.915 -62.1016h193.083h193.281h171.763
c4.40234 -17.1152 6.60742 -24.2129 10.1758 -41.293h0.0380859c0.100586 -0.570312 0.200195 -1.13965 0.338867 -1.70898c0.574219 -2.76367 1.15918 -5.52832 1.71094 -8.29102h-0.113281c0.419922 -2.16504 0.862305 -4.33105 1.25879 -6.49414l1.51465 -8.5918
c2.15234 -12.6523 3.75586 -25.2871 5.2041 -37.9141h0.0908203c0.166016 -1.54199 0.365234 -3.65332 0.540039 -5.29883c0.0986328 -0.898438 0.222656 -1.79785 0.320312 -2.69531h-0.0458984c1.8623 -17.4541 4.01074 -38.7656 4.58105 -54.6289
c3.02441 -84.2188 -47.582 -141.578 -132.83 -153.863c-56.2119 -8.10059 -113.581 -11.29 -171.892 -11.3613c-18.2119 0.25293 -36.3301 0 -54.4971 0h-0.0224609zM453.831 400.662c10.0547 -0.00292969 20.0889 0.121094 30.1611 0
c32.2783 0 64.0635 1.56738 95.2773 5.45117c44.1748 5.49414 70.9141 36.7744 73.8291 73.7324l-362.775 0.00195312h-35.21c13.665 -40.3623 52.1113 -67.8467 101.522 -73.7344c32.582 -3.88379 64.9121 -5.41113 97.1953 -5.45117z" />
</svg>
