<?xml version="1.0" standalone="no"?>
<!DOCTYPE svg PUBLIC "-//W3C//DTD SVG 1.1//EN" "http://www.w3.org/Graphics/SVG/1.1/DTD/svg11.dtd" >
<svg xmlns="http://www.w3.org/2000/svg" xmlns:xlink="http://www.w3.org/1999/xlink" version="1.1" viewBox="-10 0 1062 1000">
   <path fill="currentColor"
d="M604.87 30l-0.0292969 0.166016c-72.4111 0.439453 -144.811 3.20117 -217.532 9.83398c-118.549 10.8135 -208.474 61.2998 -237.319 135.426c-10.376 26.6621 -18.1885 53.3857 -23.6699 80.1631h-0.325195c-0.356445 2.02441 -0.584961 4.04688 -0.904297 6.07129
c-0.399414 2.04688 -0.887695 4.09082 -1.24805 6.13867h0.328125c-3.96191 26.7764 -5.57324 53.499 -4.59961 80.1611c1.11523 30.5625 14.668 54.3447 38.0596 72.6094c-30.3867 21.4014 -52.7969 47.8623 -64.6914 78.4258
c-10.375 26.6621 -18.1885 53.3857 -23.6699 80.1631h-0.324219c-0.357422 2.02441 -0.589844 4.04688 -0.904297 6.07129c-0.40332 2.0459 -0.887695 4.09082 -1.24902 6.13867h0.328125c-3.96094 26.7764 -5.57227 53.499 -4.59766 80.1611
c2.7041 74.126 77.5908 108.911 192.326 119.724c70.3828 6.63281 141.808 9.39551 214.063 9.83398l-0.0273438 0.155273h16.2363h16.2344l0.0263672 -0.151367c72.4092 -0.439453 144.809 -3.20117 217.53 -9.83398c118.549 -10.8125 205.702 -45.5977 234.549 -119.724
c10.376 -26.6621 18.1885 -53.3848 23.6699 -80.1611h0.329102c0.360352 -2.04785 0.584961 -4.09277 0.915039 -6.13867c0.399414 -2.02441 0.880859 -4.04688 1.2373 -6.07129h-0.325195c3.96191 -26.7773 5.57227 -53.501 4.59961 -80.1631
c-1.11523 -30.5635 -14.1934 -57.0244 -37.0332 -78.4258c29.834 -18.2646 51.7734 -42.0479 63.667 -72.6113c10.377 -26.6621 18.1895 -53.3848 23.6699 -80.1611h0.329102c0.361328 -2.04785 0.585938 -4.0918 0.916992 -6.13867
c0.397461 -2.02441 0.878906 -4.04688 1.23633 -6.07129h-0.321289c3.96191 -26.7773 5.57324 -53.501 4.59961 -80.1631c-2.70605 -74.126 -74.8252 -124.612 -189.562 -135.425c-70.3818 -6.63379 -141.807 -9.39551 -214.064 -9.83398l0.0292969 -0.166992h-16.2402
h-16.2402zM599.16 153.948c37.5605 0.329102 74.7393 1.66504 111.452 4.65527c63.6377 5.18262 104.212 29.3818 106.674 64.9141c0.880859 12.6924 0.347656 25.4141 -1.45996 38.1611c-2.68457 12.7559 -6.64258 25.4883 -12.0049 38.1895
c-14.9941 35.5332 -61.332 44.0303 -126.798 49.2129c-34.2607 2.71289 -68.4258 4.01758 -102.601 4.49023c-3.45801 0.000976562 -6.91309 0 -10.3701 0c-3.40723 0 -6.81543 0.000976562 -10.2217 0c-34.0557 -0.470703 -67.8076 -1.77539 -101.156 -4.49219
c-63.6387 -5.18262 -106.98 -13.6797 -109.443 -49.2129c-0.881836 -12.7012 -0.351562 -25.4336 1.46289 -38.1895c2.6875 -12.7471 6.64062 -25.4688 11.9971 -38.1611c14.9932 -35.5322 64.1006 -59.7305 129.566 -64.9131
c37.7041 -2.98535 75.29 -4.32227 112.902 -4.6543zM552.06 477.676c34.1729 0.466797 68.04 1.77148 101.502 4.49707c63.6387 5.18262 104.212 29.3818 106.675 64.9141c0.881836 12.6924 0.347656 25.4141 -1.45996 38.1611
c-2.68457 12.7568 -6.64355 25.4883 -12.0049 38.1895c-14.9932 35.5322 -61.332 44.0303 -126.798 49.2119c-37.7021 2.98633 -75.2881 4.32324 -112.899 4.65332c-37.5605 -0.328125 -74.7373 -1.66406 -111.451 -4.6543
c-63.6377 -5.18262 -106.979 -13.6807 -109.442 -49.2129c-0.880859 -12.7012 -0.351562 -25.4326 1.46387 -38.1895c2.68652 -12.7471 6.6377 -25.4678 11.9951 -38.1611c14.9941 -35.5322 64.1025 -59.7305 129.568 -64.9141
c34.3594 -2.71973 68.6211 -4.02441 102.895 -4.49316c3.35547 0.00195312 6.71094 0 10.0664 0v0c3.29395 0 6.58887 -0.00390625 9.88184 0z" />
</svg>
