<?xml version="1.0" standalone="no"?>
<!DOCTYPE svg PUBLIC "-//W3C//DTD SVG 1.1//EN" "http://www.w3.org/Graphics/SVG/1.1/DTD/svg11.dtd" >
<svg xmlns="http://www.w3.org/2000/svg" xmlns:xlink="http://www.w3.org/1999/xlink" version="1.1" viewBox="-10 0 888 1000">
   <path fill="currentColor"
d="M399.146 286c-47.6162 0.0908203 -95.4268 3.06934 -143.812 10.6963c-73.3818 11.5654 -133.343 70.5654 -156.976 149.852c-19.5342 65.5469 -31.2891 131.417 -34.8467 197.623c-4.25586 79.2773 35.708 133.287 105.012 144.853
c52.8037 8.81152 107.027 11.4277 162.312 10.499c54.959 0.925781 110.103 -1.6875 166.016 -10.499c35.2334 -5.55273 67.0898 -20.9775 93.377 -44.1973l-13.3408 75.6592h-0.237305c-0.15332 1.72559 -0.37793 3.4541 -0.676758 5.18555
c-6.97754 39.2109 -52.4443 91.1328 -97.7471 91.6689h-231.825c-38.708 -0.0683594 -21.5088 -49.5098 -15.5723 -86.1826h-175.981l-11.6699 66.1826l-1.7627 10.001c-15.7275 89.1797 42.915 161.476 130.979 161.477h387.743
c93.5186 -0.00195312 182.866 -76.7744 199.564 -171.478l107.796 -611.34h-196.366l-10.5547 59.8613c-18.1084 -23.2031 -43.6543 -43.6152 -76.915 -49.165c-45.6992 -7.62695 -92.4482 -10.6289 -140.037 -10.6963c-14.8691 0.242188 -29.6514 0 -44.4775 0z
M457.475 430.065c8.37793 0 16.7334 0.106445 25.1279 0c26.8965 0 53.3652 1.39355 79.3359 4.85059c39.3877 5.24121 63.0732 29.7168 62.1895 65.6543c-0.732422 29.709 -5.91797 59.5645 -15.7939 89.5723c-11.8291 35.9316 -44.1064 60.4111 -85.3428 65.6543
c-31.417 3.99316 -62.5215 5.17578 -93.5928 4.75586c-31.2188 0.421875 -61.9082 -0.762695 -91.917 -4.75586c-39.3867 -5.24316 -63.0312 -29.7227 -62.1885 -65.6543c0.706055 -30.0078 6.04688 -59.8633 15.7939 -89.5723
c11.791 -35.9375 44.1064 -60.4131 85.3418 -65.6543c27.1885 -3.45703 54.1426 -4.80371 81.0459 -4.85059z" />
</svg>
