<?xml version="1.0" standalone="no"?>
<!DOCTYPE svg PUBLIC "-//W3C//DTD SVG 1.1//EN" "http://www.w3.org/Graphics/SVG/1.1/DTD/svg11.dtd" >
<svg xmlns="http://www.w3.org/2000/svg" xmlns:xlink="http://www.w3.org/1999/xlink" version="1.1" viewBox="-10 0 1175 1000">
   <path fill="currentColor"
d="M646.349 30c-82.1602 0.143555 -164.545 4.65527 -247.757 16.2168c-126.196 17.5342 -226.143 99.4033 -263.989 219.609c-31.2861 99.375 -49.1357 199.239 -52.8301 299.613c-4.41797 120.19 66.5312 202.075 186.544 219.609
c91.4414 13.3604 185.101 17.3262 280.463 15.918c94.8643 1.4043 189.923 -2.55762 286.076 -15.918c126.198 -17.5342 226.026 -99.4189 263.991 -219.609c8.02734 -25.416 15.1182 -50.7988 21.3242 -76.1504l22.2246 -126.045h-517.694l-22.2246 126.045h282.314
c-19.9805 56.583 -73.6748 95.1006 -142.521 103.414c-53.041 6.40332 -105.595 8.30664 -158.113 7.63086c-52.7559 0.680664 -104.639 -1.23242 -155.423 -7.63086c-66.6436 -8.40527 -106.982 -47.6562 -106.104 -105.27
c0.732422 -48.1143 9.30566 -95.9844 25.3242 -143.621c19.374 -57.6211 73.6191 -96.8623 143.227 -105.266c45.9033 -5.54395 91.4336 -7.72168 136.902 -7.7793c14.1572 -0.00390625 28.2881 0.173828 42.4746 0c45.458 0 90.2119 2.23535 134.159 7.7793
c43.9707 5.54492 77.8262 16.5801 94.6143 45.3945l249.495 -0.585938l2.84961 -17.5293c19.7314 -121.342 -66.5312 -202.075 -186.546 -219.609c-79.1338 -11.5615 -159.921 -16.1152 -242.037 -16.2168c-25.6484 0.363281 -51.1602 0 -76.7461 0h0.00195312z" />
</svg>
