<?xml version="1.0" standalone="no"?>
<!DOCTYPE svg PUBLIC "-//W3C//DTD SVG 1.1//EN" "http://www.w3.org/Graphics/SVG/1.1/DTD/svg11.dtd" >
<svg xmlns="http://www.w3.org/2000/svg" xmlns:xlink="http://www.w3.org/1999/xlink" version="1.1" viewBox="-10 0 805 1000">
   <path fill="currentColor"
d="M540.486 41l-148.381 150.746l27.502 35.3203l164.52 -120.084zM125.339 259.309l-95.2773 540.344h187.725l43.1846 -244.912c12.5869 -70.9375 80.0303 -128.027 151.287 -128.027h53.9121c71.3076 0 118.633 57.1689 106.112 128.178l-36.8398 208.926
l-4.22266 23.9473l-2.0957 11.8887h187.721l29.3604 -166.512l36.7686 -208.527c14.3643 -81.459 -80.1621 -130.2 -160.644 -153.559c-26.7227 -7.77148 -55.2285 -11.7295 -84.5947 -11.7461c-86.2207 0.0566406 -174.159 34.0078 -241.084 93.0762l16.4121 -93.0762
h-187.725z" />
</svg>
