<?xml version="1.0" standalone="no"?>
<!DOCTYPE svg PUBLIC "-//W3C//DTD SVG 1.1//EN" "http://www.w3.org/Graphics/SVG/1.1/DTD/svg11.dtd" >
<svg xmlns="http://www.w3.org/2000/svg" xmlns:xlink="http://www.w3.org/1999/xlink" version="1.1" viewBox="-10 0 1173 1000">
   <path fill="currentColor"
d="M756.776 -190l-149.202 155.406l27.3096 36.416l165.175 -123.799zM647.2 25.1719c-82.1602 0.143555 -164.545 4.6543 -247.757 16.2168c-126.197 17.5342 -226.143 99.4033 -263.989 219.609c-31.2861 99.375 -49.1357 199.239 -52.8301 299.613
c-4.41992 120.191 66.5303 202.073 186.544 219.607c91.4414 13.3604 185.101 17.3262 280.463 15.918c94.8633 1.4043 189.923 -2.55762 286.078 -15.918c126.196 -17.5342 226.022 -99.416 263.989 -219.607c31.7051 -100.374 49.0713 -200.238 52.8301 -299.613
c4.54395 -120.206 -66.5312 -202.075 -186.544 -219.609c-79.1348 -11.5625 -159.921 -16.1152 -242.037 -16.2168c-25.6484 0.362305 -51.1621 0 -76.7471 0zM628.936 225.939c14.1572 -0.00390625 28.2871 0.173828 42.4746 0c45.459 0 90.2119 2.23535 134.159 7.7793
c66.6465 8.40332 107.05 47.6426 106.106 105.264c-0.78125 47.6367 -9.08984 95.5059 -25.3242 143.621c-19.4424 57.6133 -73.6191 96.8662 -143.229 105.271c-53.041 6.40332 -105.596 8.30469 -158.114 7.62891c-52.7559 0.680664 -104.64 -1.23047 -155.423 -7.62891
c-66.6436 -8.40527 -106.981 -47.6582 -106.103 -105.271c0.731445 -48.1152 9.30566 -95.9844 25.3242 -143.621c19.373 -57.6211 73.6182 -96.8604 143.226 -105.264c45.9033 -5.54395 91.4346 -7.72168 136.903 -7.7793z" />
</svg>
