<?xml version="1.0" standalone="no"?>
<!DOCTYPE svg PUBLIC "-//W3C//DTD SVG 1.1//EN" "http://www.w3.org/Graphics/SVG/1.1/DTD/svg11.dtd" >
<svg xmlns="http://www.w3.org/2000/svg" xmlns:xlink="http://www.w3.org/1999/xlink" version="1.1" viewBox="-21 0 872 1000">
   <path fill="currentColor"
d="M-10.5059 1029.72h197.814l49.9961 -283.542c32.7598 33.1641 79.46 53.2051 134.583 53.2051h188.305c122.32 0 238.158 -98.4727 259.727 -220.791l16.7158 -94.8008c21.5684 -122.317 -59.543 -220.792 -181.863 -220.792h-188.305
c-55.123 0 -108.891 20.041 -153.347 53.2051l9.38184 -53.2051h-197.814zM349.718 646.36c-52.5273 0 -87.3564 -42.2842 -78.0947 -94.8105l7.17871 -40.7148c9.26172 -52.5264 59.0029 -94.8115 111.53 -94.8115h168.162c52.5254 0 87.3564 42.2852 78.0947 94.8115
l-7.17871 40.7148c-9.26172 52.5264 -59.0049 94.8105 -111.53 94.8105h-168.162z" />
</svg>
