<?xml version="1.0" standalone="no"?>
<!DOCTYPE svg PUBLIC "-//W3C//DTD SVG 1.1//EN" "http://www.w3.org/Graphics/SVG/1.1/DTD/svg11.dtd" >
<svg xmlns="http://www.w3.org/2000/svg" xmlns:xlink="http://www.w3.org/1999/xlink" version="1.1" viewBox="-10 0 460 1000">
   <path fill="currentColor"
d="M353.862 33h-102.378h-86.2412l-25.1689 142.735h17.7764c37.8105 0 65.0732 19.2334 58.4062 57.0459l-4.97852 28.2363l-18.0693 102.479l-5.08496 28.8389l-8.47266 48.0508l-5.08594 28.8389l-18.0693 102.478l-4.97852 28.2363
c-6.66895 37.8135 -40.7139 57.0479 -78.5244 57.0479h-17.7764l-25.168 142.734h86.2412h102.378c56.541 -0.000976562 110.456 -45.8379 120.425 -102.378l22.1533 -125.641l18.0693 -102.478l18.6436 -105.729l18.0693 -102.479l22.1533 -125.64
c9.9707 -56.541 -27.7803 -102.377 -84.3193 -102.378z" />
</svg>
