<?xml version="1.0" standalone="no"?>
<!DOCTYPE svg PUBLIC "-//W3C//DTD SVG 1.1//EN" "http://www.w3.org/Graphics/SVG/1.1/DTD/svg11.dtd" >
<svg xmlns="http://www.w3.org/2000/svg" xmlns:xlink="http://www.w3.org/1999/xlink" version="1.1" viewBox="-10 0 477 1000">
   <path fill="currentColor"
d="M267.615 33c-56.541 0.000976562 -110.456 45.8369 -120.425 102.378l-22.1533 125.64l-18.0693 102.479l-18.6436 105.729l-18.0693 102.479l-22.1533 125.639c-9.9707 56.54 27.7803 102.377 84.3193 102.378h102.378h86.2412l25.168 -142.734h-17.7764
c-37.8105 0 -65.0723 -19.2354 -58.4053 -57.0469l4.97852 -28.2354l18.0693 -102.479l5.08594 -28.8389l8.47266 -48.0508l5.08496 -28.8389l18.0693 -102.479l4.97852 -28.2363c6.66895 -37.8125 40.7129 -57.0459 78.5234 -57.0459h17.7764l25.1689 -142.735h-86.2412
h-102.378z" />
</svg>
