<?xml version="1.0" standalone="no"?>
<!DOCTYPE svg PUBLIC "-//W3C//DTD SVG 1.1//EN" "http://www.w3.org/Graphics/SVG/1.1/DTD/svg11.dtd" >
<svg xmlns="http://www.w3.org/2000/svg" xmlns:xlink="http://www.w3.org/1999/xlink" version="1.1" viewBox="-10 0 1251 1000">
   <path fill="currentColor"
d="M646.352 30c-82.1611 0.143555 -164.548 4.65527 -247.76 16.2168c-126.195 17.5342 -226.143 99.4033 -263.988 219.609c-31.2871 99.376 -49.1377 199.239 -52.8301 299.613c-4.4209 120.191 66.5312 202.075 186.543 219.609
c91.4424 13.3604 185.104 17.3271 280.464 15.918c94.8662 1.4043 189.922 -2.55762 286.077 -15.918c58.665 -8.15137 111.508 -30.3604 155.212 -63.709l116.459 79.8945l124.216 -157.57l-128.861 -88.4023c29.6953 -96.9453 46.165 -193.421 49.7949 -289.436
c4.5459 -120.206 -66.5322 -202.075 -186.545 -219.609c-79.1338 -11.5615 -159.919 -16.1152 -242.037 -16.2168c-25.6465 0.363281 -51.1611 0 -76.7441 0zM628.084 230.768c14.1582 0 28.2881 0.173828 42.4766 0c45.4561 0 90.2119 2.23535 134.157 7.7793
c66.6475 8.4043 107.053 47.6445 106.107 105.266c-0.410156 24.999 -2.9502 50.0625 -7.56348 75.1914l-117.374 -80.5215l-124.216 157.57l125.574 86.1465c-14.0518 4.98535 -29.085 8.58594 -44.9756 10.5039c-53.04 6.40332 -105.594 8.30664 -158.113 7.63086
c-52.7578 0.680664 -104.641 -1.23145 -155.422 -7.63086c-66.6455 -8.40527 -106.982 -47.6562 -106.105 -105.27c0.732422 -48.1143 9.30566 -95.9844 25.3242 -143.621c19.376 -57.6211 73.6191 -96.8613 143.229 -105.266
c45.9004 -5.54395 91.4355 -7.72168 136.901 -7.7793z" />
</svg>
