<?xml version="1.0" standalone="no"?>
<!DOCTYPE svg PUBLIC "-//W3C//DTD SVG 1.1//EN" "http://www.w3.org/Graphics/SVG/1.1/DTD/svg11.dtd" >
<svg xmlns="http://www.w3.org/2000/svg" xmlns:xlink="http://www.w3.org/1999/xlink" version="1.1" viewBox="-10 0 932 1000">
   <path fill="currentColor"
d="M349.998 33c-102.351 0 -202.889 102.84 -225.413 230.582c-2.05469 11.6504 -3.37012 23.0869 -4.01172 34.2627h197.133c-0.0556641 -4.76074 0.27832 -9.70703 1.17969 -14.8193l0.958008 -5.43066c6.24609 -35.4219 34.126 -63.9385 62.5049 -63.9385h288.188
c28.3809 0 46.1963 28.5166 39.9502 63.9385l-0.958008 5.43066c-5.35938 30.3975 -26.6572 55.6523 -50.5254 62.2207h-199.459c-50.9023 0 -99.4443 41.2646 -108.42 92.1689l-10.0068 56.75l-10.0068 56.75h170.097l2.97559 -16.8711
c3.88281 -22.0244 24.8848 -39.8789 46.9092 -39.8789h130.218c102.351 0 202.884 -102.84 225.408 -230.583c22.5244 -127.742 -41.7412 -230.582 -144.092 -230.582h-412.628zM313.45 633.171l-29.4814 167.201h170.097l29.4814 -167.201h-170.097z" />
</svg>
