<?xml version="1.0" standalone="no"?>
<!DOCTYPE svg PUBLIC "-//W3C//DTD SVG 1.1//EN" "http://www.w3.org/Graphics/SVG/1.1/DTD/svg11.dtd" >
<svg xmlns="http://www.w3.org/2000/svg" xmlns:xlink="http://www.w3.org/1999/xlink" version="1.1" viewBox="-10 0 828 1000">
   <path fill="currentColor"
d="M549.542 50l-148.381 150.744l27.502 35.3223l164.52 -120.084zM292.17 261.729c-92.6572 0 -179.88 71.6143 -195.564 160.568c-15.6855 88.9551 46.2822 160.566 138.939 160.566h329.594c19.752 4.57422 31.9014 22.1611 28.168 43.3301l-0.666016 3.7793
c-4.34961 24.667 -28.5312 44.5254 -54.2266 44.5254h-260.895c-25.6924 0 -42.877 -19.8584 -38.5273 -44.5254l0.666016 -3.7793c0.62793 -3.56152 1.71191 -7.00879 3.10938 -10.3242h-178.467c-2.56641 7.78418 -4.61133 15.752 -6.04199 23.8652
c-15.6846 88.9541 46.2881 160.562 138.946 160.562h373.553c92.6572 0 179.879 -71.6084 195.563 -160.562c15.6855 -88.9551 -46.2822 -160.568 -138.939 -160.568h-329.594c-19.751 -4.5752 -31.8984 -22.1621 -28.166 -43.3301l0.666992 -3.78516
c4.34961 -24.666 28.5352 -44.5195 54.2295 -44.5195h260.893c25.6924 0 42.874 19.8535 38.5244 44.5195l-0.666992 3.78516c-0.62793 3.56152 -1.70898 7.00098 -3.10645 10.3164h178.465c2.56836 -7.7832 4.61035 -15.7432 6.04102 -23.8555
c15.6846 -88.9541 -46.2812 -160.568 -138.939 -160.568h-373.559z" />
</svg>
