<?xml version="1.0" standalone="no"?>
<!DOCTYPE svg PUBLIC "-//W3C//DTD SVG 1.1//EN" "http://www.w3.org/Graphics/SVG/1.1/DTD/svg11.dtd" >
<svg xmlns="http://www.w3.org/2000/svg" xmlns:xlink="http://www.w3.org/1999/xlink" version="1.1" viewBox="-10 0 1069 1000">
   <path fill="currentColor"
d="M577.33 30v0.00195312c-71.8604 0 -143.859 3.47461 -216.401 12.1074c-110.016 13.0918 -206.545 73.6084 -226.003 163.973c-5.05273 23.459 -52.8193 309.001 -58.4873 333.284h0.102539c-0.603516 2.77441 -1.28809 5.54492 -1.85059 8.32031l-2.29492 13.0186
c-4.2959 28.5518 -6.30859 57.0439 -5.80957 85.4717c1.38477 79.0391 70.582 132.873 181.834 144.401c73.3574 7.60254 147.913 10.5684 223.481 10.6631h10.3428h5.43066h10.3428c75.6016 -0.0947266 151.201 -3.06055 227.241 -10.6631
c115.318 -11.5283 203.501 -65.3623 232.76 -144.401c10.5234 -28.4277 18.5586 -56.9199 24.332 -85.4717h0.313477c0.379883 -2.1582 0.639648 -4.31543 0.982422 -6.47363c0.422852 -2.18164 0.927734 -4.3623 1.3125 -6.54492h-0.317383
c4.29688 -28.5508 6.30762 -57.0439 5.80859 -85.4727c-1.38574 -79.0381 -73.5381 -116.129 -184.79 -127.657c-73.3574 -7.60254 -147.913 -10.5684 -223.479 -10.6631c-4.29102 0 -8.58301 0.00390625 -12.874 0h-13.2344l-0.00195312 0.00195312l0.00195312 0.00195312
c-58.6094 0.0712891 -117.226 1.94727 -176.039 6.29395c-23.0664 2.76758 -53.7959 9.6875 -63.9414 14.6826l0.552734 -3.13477c7.4873 -40.8555 13.9307 -75.7129 14.5498 -77.416c15.6465 -43.0225 54.3682 -72.3232 115.08 -78.5977
c40.0361 -4.13965 79.8223 -5.76465 119.602 -5.80762c12.3857 -0.00292969 24.7549 0.12793 37.1641 0c39.7715 0 78.9795 1.66797 117.556 5.80762c34.2852 3.67773 100.029 14.9404 97.5557 28.4551l-8.60547 47.0254h225.93l7.17871 -40.7148h0.208008l2.09961 -13.0869
l1.99023 -11.2871c-0.00390625 -1.06836 -0.0136719 -2.13672 -0.0185547 -3.2041c12.5205 -104.787 -53.4668 -134.509 -190.335 -150.791c-69.6084 -8.28125 -140.284 -12.0312 -212.132 -12.1074c-22.4316 0.271484 -44.7607 0 -67.1445 0zM545.852 455.92
c40.8955 0.09375 81.29 1.52344 121.106 5.08887c61.7197 5.52637 103.672 14.5869 105.468 52.4736c0.643555 13.5439 -0.0878906 27.1191 -2.06348 40.7207c-2.82324 13.5908 -6.87402 27.1562 -12.2891 40.6895c-15.1562 37.8867 -63.2588 63.6885 -126.925 69.2148
c-41.0791 3.56543 -81.9775 4.99121 -122.911 5.08887c-40.8926 -0.0986328 -81.2852 -1.52344 -121.1 -5.08887c-61.7207 -5.52637 -100.723 -31.3281 -102.52 -69.2148c-0.642578 -13.5332 0.0917969 -27.0986 2.06055 -40.6895
c2.82031 -13.6016 6.87695 -27.1768 12.2959 -40.7207c15.1582 -37.8867 60.3076 -46.9473 123.977 -52.4736c41.0732 -3.56543 81.9697 -4.99316 122.9 -5.08887z" />
</svg>
