<?xml version="1.0" standalone="no"?>
<!DOCTYPE svg PUBLIC "-//W3C//DTD SVG 1.1//EN" "http://www.w3.org/Graphics/SVG/1.1/DTD/svg11.dtd" >
<svg xmlns="http://www.w3.org/2000/svg" xmlns:xlink="http://www.w3.org/1999/xlink" version="1.1" viewBox="-10 0 1068 1000">
   <path fill="currentColor"
d="M586.396 31c-73.0303 0.0644531 -146.056 2.85547 -219.47 9.94922c-111.338 10.7578 -196.218 60.9834 -224.021 134.73c-2.01465 5.33691 -3.81641 10.6807 -5.64453 16.0225l-12.4473 70.5889h224.316l5.16504 -31.0674
c2.59375 -15.251 30.0967 -47.0371 100.765 -52.2803c40.5312 -3.00684 80.917 -4.77246 121.325 -4.77246c12.5713 0.105469 25.1768 -0.00195312 37.7617 0c40.4053 0.0380859 80.3057 1.37207 119.646 4.77246c59.6582 5.15625 97.4854 29.2324 99.4414 64.583
c-0.383789 21.8506 -1.88477 35.8809 -9.86816 55.958c-14.4238 35.3516 -40 37.0127 -109.483 39.9609c-24.0254 1.01855 -134.671 0.890625 -140.851 1.32715l-1.07812 6.11328l-23.9658 135.913l-1.07715 6.11328c6.02637 0.436523 96.3662 -1.56934 140.383 1.32715
c68.0898 4.48047 93.4346 4.60938 95.3906 39.96c2.28809 23.0137 -0.410156 29.2754 -9.86523 55.959c-14.4229 35.3506 -59.6826 53.4268 -121.159 58.583c-40.5391 3.40039 -80.9102 4.73633 -121.328 4.77246c-12.5859 0.00195312 -25.1533 -0.105469 -37.7617 0
c-40.4082 0 -80.1719 -1.76562 -119.643 -4.77246c-68.8193 -5.24414 -85.1123 -37.0293 -82.3281 -52.2803l4.7334 -25.0674h-224.316l-12.4463 70.5889c-0.0556641 5.3418 -0.137695 10.6846 -0.00585938 16.0225c1.79688 73.7461 68.9639 123.973 176.509 134.73
c70.9121 7.09375 142.953 9.88672 215.961 9.94922h0.00195312c22.7842 -0.222656 45.4854 0 68.2285 0c73.0361 -0.0908203 146.054 -2.85547 219.469 -9.94922c111.339 -10.7568 196.215 -60.9854 224.021 -134.732c10.001 -26.5254 17.5977 -53.1094 23.0098 -79.75
h0.305664c0.354492 -2.01465 0.591797 -4.02539 0.90918 -6.03906c0.397461 -2.03613 0.873047 -4.07129 1.23242 -6.1084h-0.30957c3.98438 -26.6396 5.7627 -53.2256 5.11523 -79.75c-0.677734 -27.7959 -11.0508 -50.0195 -29.4482 -67.5127
c24.5664 -17.4941 42.7773 -39.7188 53.2568 -67.5137c10.002 -26.5244 17.5986 -53.1104 23.0088 -79.75h0.30957c0.359375 -2.03711 0.589844 -4.07227 0.921875 -6.1084c0.393555 -2.01367 0.865234 -4.02441 1.2207 -6.03906h-0.305664
c3.9834 -26.6396 5.76172 -53.2246 5.11426 -79.75c-1.79785 -73.7471 -68.9609 -123.976 -176.507 -134.732c-70.9131 -7.09375 -142.955 -9.86133 -215.96 -9.94922c-22.7432 0 -45.5225 0.222656 -68.2285 0h-0.00195312z" />
</svg>
