<?xml version="1.0" standalone="no"?>
<!DOCTYPE svg PUBLIC "-//W3C//DTD SVG 1.1//EN" "http://www.w3.org/Graphics/SVG/1.1/DTD/svg11.dtd" >
<svg xmlns="http://www.w3.org/2000/svg" xmlns:xlink="http://www.w3.org/1999/xlink" version="1.1" viewBox="-10 0 1047 1000">
   <path fill="currentColor"
d="M398.718 52.2139c-127.22 18.5225 -228.57 105.011 -267.727 231.991c-33.0498 107.183 -47.8848 200.062 -52.1133 295.552c-5.625 126.98 69.9678 186.568 190.656 205.091c71.0186 10.8994 233.855 30.2646 441.729 -0.000976562
c127.22 -18.5215 223.824 -78.1094 262.98 -205.091c33.0498 -107.181 47.8877 -200.064 52.1133 -295.551c5.625 -126.98 -65.2246 -213.469 -185.914 -231.991c-70.9814 -10.8945 -233.841 -30.2676 -441.729 0h0.00488281zM705.331 209.439
c81.251 11.3789 129.718 64.5049 127.219 142.516c-1.95508 61.2168 -10.7676 109.036 -29.5576 167.623c-25.0137 78.0098 -86.1367 96.666 -171.4 108.043c-85.9863 11.4785 -144.57 11.5381 -226.937 0c-81.252 -11.377 -135.797 -30.0332 -133.299 -108.043
c1.87598 -58.7197 9.97266 -106.565 29.5537 -167.623c25.0127 -78.0107 92.2168 -131.137 177.481 -142.516c85.9814 -11.4756 144.551 -11.54 226.939 0z" />
</svg>
